<?xml version="1.0" encoding="UTF-8"?>
<svg width="24px" height="99px" viewBox="0 0 24 99" version="1.1" xmlns="http://www.w3.org/2000/svg" xmlns:xlink="http://www.w3.org/1999/xlink">
    <title>Group 73 Copy 2</title>
    <g id="kinopio" stroke="none" stroke-width="1" fill="none" fill-rule="evenodd" stroke-linecap="square" stroke-linejoin="round">
        <g id="Group-73-Copy-2" transform="translate(11.968259, 49.431437) scale(-1, 1) rotate(-90.000000) translate(-11.968259, -49.431437) translate(-36.240788, 38.931437)" fill="#2AA550" stroke="#2AA550">
            <path d="M70.5955969,8.82354854 C72.5366605,8.82354854 74.683241,7.8074826 77.0353384,5.77535072 C74.719856,3.76294841 72.591583,2.75674726 70.6505194,2.75674726 C68.7094558,2.75674726 66.620201,3.76294841 64.3827549,5.77535072 C66.583586,7.8074826 68.6545334,8.82354854 70.5955969,8.82354854 Z" id="Oval-Copy-33" transform="translate(70.709047, 5.790148) scale(-1, -1) rotate(-330.000000) translate(-70.709047, -5.790148) "></path>
            <path d="M54.88198,8.82354854 C56.8230436,8.82354854 58.9696241,7.8074826 61.3217215,5.77535072 C59.006239,3.76294841 56.877966,2.75674726 54.9369024,2.75674726 C52.9958388,2.75674726 50.906584,3.76294841 48.6691379,5.77535072 C50.869969,7.8074826 52.9409164,8.82354854 54.88198,8.82354854 Z" id="Oval-Copy-76" transform="translate(54.995430, 5.790148) scale(-1, -1) rotate(-330.000000) translate(-54.995430, -5.790148) "></path>
            <path d="M22.88198,8.82354854 C24.8230436,8.82354854 26.9696241,7.8074826 29.3217215,5.77535072 C27.006239,3.76294841 24.877966,2.75674726 22.9369024,2.75674726 C20.9958388,2.75674726 18.906584,3.76294841 16.6691379,5.77535072 C18.869969,7.8074826 20.9409164,8.82354854 22.88198,8.82354854 Z" id="Oval-Copy-103" transform="translate(22.995430, 5.790148) scale(-1, -1) rotate(-330.000000) translate(-22.995430, -5.790148) "></path>
            <path d="M38.88198,8.82354854 C40.8230436,8.82354854 42.9696241,7.8074826 45.3217215,5.77535072 C43.006239,3.76294841 40.877966,2.75674726 38.9369024,2.75674726 C36.9958388,2.75674726 34.906584,3.76294841 32.6691379,5.77535072 C34.869969,7.8074826 36.9409164,8.82354854 38.88198,8.82354854 Z" id="Oval-Copy-101" transform="translate(38.995430, 5.790148) scale(-1, -1) rotate(-330.000000) translate(-38.995430, -5.790148) "></path>
            <path d="M6.88197998,8.82354854 C8.82304358,8.82354854 10.9696241,7.8074826 13.3217215,5.77535072 C11.006239,3.76294841 8.877966,2.75674726 6.93690241,2.75674726 C4.99583882,2.75674726 2.90658399,3.76294841 0.669137935,5.77535072 C2.86996904,7.8074826 4.94091639,8.82354854 6.88197998,8.82354854 Z" id="Oval-Copy-104" transform="translate(6.995430, 5.790148) scale(-1, -1) rotate(-330.000000) translate(-6.995430, -5.790148) "></path>
            <path d="M89.3092139,9.82354854 C91.2502775,9.82354854 93.396858,8.8074826 95.7489554,6.77535072 C93.4334729,4.76294841 91.3051999,3.75674726 89.3641363,3.75674726 C87.4230727,3.75674726 85.3338179,4.76294841 83.0963719,6.77535072 C85.297203,8.8074826 87.3681503,9.82354854 89.3092139,9.82354854 Z" id="Oval-Copy-71" transform="translate(89.422664, 6.790148) scale(1, -1) rotate(-330.000000) translate(-89.422664, -6.790148) "></path>
            <path d="M77.1145115,17.4150987 C79.0555751,17.4150987 81.2021556,16.3990327 83.554253,14.3669008 C81.2387705,12.3544985 79.1104975,11.3482974 77.1694339,11.3482974 C75.2283703,11.3482974 73.1391155,12.3544985 70.9016695,14.3669008 C73.1025006,16.3990327 75.1734479,17.4150987 77.1145115,17.4150987 Z" id="Oval-Copy-70" transform="translate(77.227961, 14.381698) rotate(-45.000000) translate(-77.227961, -14.381698) "></path>
            <path d="M61.9314112,17.4150987 C63.8724748,17.4150987 66.0190553,16.3990327 68.3711527,14.3669008 C66.0556703,12.3544985 63.9273973,11.3482974 61.9863337,11.3482974 C60.0452701,11.3482974 57.9560153,12.3544985 55.7185692,14.3669008 C57.9194003,16.3990327 59.9903477,17.4150987 61.9314112,17.4150987 Z" id="Oval-Copy-75" transform="translate(62.044861, 14.381698) rotate(-45.000000) translate(-62.044861, -14.381698) "></path>
            <path d="M29.9314112,17.4150987 C31.8724748,17.4150987 34.0190553,16.3990327 36.3711527,14.3669008 C34.0556703,12.3544985 31.9273973,11.3482974 29.9863337,11.3482974 C28.0452701,11.3482974 25.9560153,12.3544985 23.7185692,14.3669008 C25.9194003,16.3990327 27.9903477,17.4150987 29.9314112,17.4150987 Z" id="Oval-Copy-105" transform="translate(30.044861, 14.381698) rotate(-45.000000) translate(-30.044861, -14.381698) "></path>
            <path d="M45.9314112,17.4150987 C47.8724748,17.4150987 50.0190553,16.3990327 52.3711527,14.3669008 C50.0556703,12.3544985 47.9273973,11.3482974 45.9863337,11.3482974 C44.0452701,11.3482974 41.9560153,12.3544985 39.7185692,14.3669008 C41.9194003,16.3990327 43.9903477,17.4150987 45.9314112,17.4150987 Z" id="Oval-Copy-102" transform="translate(46.044861, 14.381698) rotate(-45.000000) translate(-46.044861, -14.381698) "></path>
            <path d="M13.9314112,17.4150987 C15.8724748,17.4150987 18.0190553,16.3990327 20.3711527,14.3669008 C18.0556703,12.3544985 15.9273973,11.3482974 13.9863337,11.3482974 C12.0452701,11.3482974 9.95601526,12.3544985 7.7185692,14.3669008 C9.9194003,16.3990327 11.9903477,17.4150987 13.9314112,17.4150987 Z" id="Oval-Copy-106" transform="translate(14.044861, 14.381698) rotate(-45.000000) translate(-14.044861, -14.381698) "></path>
        </g>
    </g>
</svg>