<?xml version="1.0" encoding="UTF-8" standalone="yes"?><svg xmlns="http://www.w3.org/2000/svg" xmlns:xlink="http://www.w3.org/1999/xlink" width="200px" height="200px" viewBox="0 0 200 200" version="1.2" baseProfile="tiny-ps"><title>Kinopio.club Logo</title><g id="bimi" stroke="none" stroke-width="1" fill="none" fill-rule="evenodd"><rect fill="#FFFFFF" x="0" y="0" width="200" height="200"></rect><g id="Group-Copy-4" transform="translate(100.000000, 99.500000) rotate(12.000000) translate(-100.000000, -99.500000) translate(19.000000, 31.000000)" fill="#1F4232"><path d="M85.2893184,0.00176131876 L82.2800603,-6.34645227e-13 C70.387339,-6.34645227e-13 59.7934463,1.73259449 50.5157519,5.22484378 L49.4510908,5.63560628 C39.8016769,9.25731179 31.5173417,13.99765 24.6886699,19.8419375 L23.8062362,20.6104952 C12.6453673,30.1235395 6.03916087,46.539895 4.79330244,62.6158855 C4.39561085,67.7475168 4.59956133,71.6475259 5.31433263,76.6479195 L6.02609078,81.4132855 L6.17591286,82.5980676 L6.2175089,83.0473292 L6.24927659,83.589875 L6.2670109,84.3137276 C6.27840574,85.0643992 6.23736755,85.761322 6.13886285,86.4457389 C6.10807667,86.6596432 6.09262536,86.8754462 6.09262536,87.0915217 C6.09262536,89.137288 5.63531453,91.0188433 4.62365103,93.5622004 L4.30744392,94.3356328 L3.41827118,96.4381537 L3.05690652,97.3343995 C2.89333363,97.7552994 2.75372235,98.1411031 2.63041133,98.5176328 L2.38902601,99.2878291 L2.15582957,99.9770417 C2.08027851,100.186983 2.00639941,100.3791 1.93266489,100.559307 L1.78234876,100.909222 L1.26326701,102.046675 C1.23868139,102.103106 1.21732549,102.153289 1.2004598,102.194666 C0.975262538,102.747147 0.811526212,103.293149 0.698229957,103.894721 L0.611371689,104.416693 L0.44355208,105.100889 C-0.135234434,107.452397 -0.183385385,109.69188 0.512563524,113.258622 C1.85270324,120.126845 8.35998101,126.483946 15.1941772,127.012057 L15.7577373,127.05155 L16.2782432,127.075741 L16.7901809,127.081503 L17.1437427,127.073561 L17.5190415,127.055111 L18.1450987,127.005706 L18.8775408,126.927444 L20.4283539,126.724384 L25.449944,125.979028 L26.823298,125.783509 L28.0851035,125.61909 L29.2542336,125.484803 C30.006956,125.405108 30.7104769,125.344856 31.3899606,125.302758 L32.3943037,125.253065 C32.7251724,125.240931 33.0531774,125.233175 33.3814641,125.229634 C35.1873447,125.210157 36.8088195,125.338382 38.2654071,125.627538 L40.791547,126.139487 L41.7399154,126.342388 L42.781287,126.580701 L43.2369811,126.692816 C44.2760511,126.95509 45.0378066,127.198603 45.7476119,127.494607 L46.676324,127.913396 L47.2471411,128.207484 L48.1933089,128.755671 L52.7768812,131.580897 C58.4441991,135.09669 64.2907454,136.68812 72.8593545,136.95793 L74.3553985,136.991349 C75.6251136,137.008597 76.9533463,137 78.3475103,136.966043 L80.0526285,136.914151 L81.8238875,136.839402 L83.664134,136.742471 L85.5762148,136.624034 C92.6450015,136.156278 99.0712394,134.313654 105.171911,131.446742 L106.175837,130.956988 L107.290032,130.384667 L108.460396,129.763001 L110.576961,128.602837 L112.207214,127.684338 L112.606232,127.453225 L114.843216,127.863928 L121.670789,129.219939 L123.488904,129.570831 L125.136962,129.874248 L126.68187,130.141649 C127.679262,130.30793 128.613395,130.450257 129.495285,130.568745 L130.780314,130.728611 C132.445113,130.917964 133.922968,131.012186 135.301997,131.012186 C143.181057,131.012186 149.971051,127.040436 157.66673,118.183868 C157.914626,117.898576 158.126002,117.583939 158.296039,117.247128 L158.619403,116.590884 C162.512693,108.492325 162.902469,100.242257 160.510167,95.0654308 L160.381795,94.8034977 L160.252449,94.2873219 C159.977732,93.1501388 159.730024,91.7902359 159.509085,90.2303492 L159.32626,88.8448583 C159.296879,88.6059573 159.268044,88.3631075 159.239753,88.1163754 L159.076532,86.5899234 L158.926339,84.9734746 L158.783443,83.1948505 L158.65025,81.2629786 L158.531309,79.2412423 C158.512542,78.895836 158.494272,78.5459643 158.476448,78.1912666 L158.167852,70.8200306 L158.106124,69.6756321 L158.023767,68.4284857 L157.921652,67.0977934 C157.903035,66.8701159 157.883631,66.6397575 157.863457,66.4071181 L157.671356,64.3568063 C157.647112,64.1156153 157.603559,63.8767226 157.54111,63.6423922 L149.475277,33.3766864 C149.378273,33.0126965 149.236289,32.6620086 149.052555,32.3326061 C145.081718,25.2135908 138.125015,16.6778374 129.883805,10.1345646 C129.712434,9.99850115 129.531474,9.87477932 129.342313,9.76434643 C119.547869,4.04633671 111.946968,1.53509714 100.776358,0.553239687 L99.0732733,0.417221761 C98.2076241,0.354738308 97.3202745,0.300385863 96.4087929,0.253456779 L94.5529335,0.169286753 L92.6284,0.103654315 L90.6308698,0.0553014233 L88.5560207,0.0229700379 L86.39953,0.00540211748 C86.0330713,0.00363452831 85.6630308,0.00242966513 85.2893184,0.00176131876 Z M82.2773505,9.13381211 L86.3085385,9.13880787 L88.3420572,9.15439833 L90.2910287,9.18303717 L92.1599491,9.2259225 L93.9533142,9.2842524 C94.2461619,9.29532766 94.5360488,9.30709636 94.8230686,9.31958348 L96.511531,9.4033267 L98.1356781,9.50550976 C98.4012595,9.52414349 98.6643483,9.54359546 98.9250384,9.56389064 L100.461143,9.69597992 L101.944172,9.84950429 C110.206116,10.7824716 116.128159,12.8056051 123.39177,16.8999522 L124.380784,17.465677 L124.966137,17.9388787 C131.579555,23.3777516 137.245159,30.2882118 140.594287,36.0431211 L140.727478,36.2776781 L148.550183,65.631926 L148.696014,67.2110255 L148.798285,68.4615528 L148.882778,69.6416184 L148.94852,70.729663 L149.230893,77.5339037 L149.361834,80.102912 L149.510894,82.5349727 C149.537476,82.9305821 149.564986,83.321744 149.593508,83.7090879 L149.682198,84.8602944 C150.115854,90.2444464 150.732652,94.5451037 151.64538,97.7159519 C151.709035,97.9370896 151.789384,98.1529806 151.885673,98.3618111 L152.041967,98.6695348 C152.481331,99.4589912 152.840432,101.232096 152.768942,103.405436 L152.739227,104.004533 C152.566273,106.620033 151.816711,109.484511 150.405369,112.465613 L150.307991,112.660102 L149.665555,113.381089 C144.074425,119.540132 139.818923,121.878373 135.301997,121.878373 C134.243889,121.878373 133.030153,121.795012 131.604876,121.6262 L130.495381,121.483535 L129.301316,121.30863 L128.017439,121.101289 L126.638509,120.861314 L125.159284,120.588511 L115.538544,118.695366 L114.170432,118.452192 L113.297867,118.313847 L112.352878,118.176307 C111.58038,118.066769 110.7947,118.15427 110.069081,118.427624 L109.685131,118.593788 L106.504591,120.391018 L104.926495,121.265039 L103.712012,121.923775 L102.373061,122.6276 L101.584279,123.023339 C101.462024,123.082994 101.344831,123.139218 101.233384,123.191591 C96.1140011,125.597363 90.7854786,127.125234 84.9639557,127.510456 L83.194098,127.620554 L81.50137,127.71108 L79.882748,127.781581 L78.335208,127.831606 L76.8557263,127.860702 L75.4412791,127.868416 L74.0888425,127.854298 C73.868436,127.8501 73.6504873,127.844974 73.4349333,127.83891 L72.1698431,127.791194 C71.5511628,127.761633 70.9529016,127.723461 70.3733587,127.676423 L69.2387266,127.570451 C64.6108837,127.079019 61.2041757,125.960144 58.0342882,124.066646 L53.1372493,121.047041 L51.9648833,120.353594 L51.2469428,119.962649 L50.5329281,119.61631 L49.9101509,119.333377 C48.7542693,118.811504 47.6015809,118.405178 46.2176972,118.027601 L45.2424869,117.775219 L44.4110669,117.577425 L42.767121,117.218176 L41.5407276,116.965696 L40.0705061,116.671138 C37.9403235,116.248263 35.6908258,116.070375 33.2814596,116.09636 C31.2816384,116.117928 29.3700859,116.259317 27.0874278,116.53747 L25.6696252,116.720909 L24.1407074,116.937986 L19.2094047,117.667378 L17.9738529,117.826475 L17.2551092,117.898006 L16.827092,117.924221 L16.4611929,117.930554 L16.1276585,117.920274 L15.9085895,117.905805 C13.3981024,117.711808 10.133303,114.522355 9.54789012,111.52211 L9.39402125,110.678854 C9.13375736,109.124445 9.15200489,108.319129 9.33479615,107.479446 L9.58352246,106.452779 C9.5974899,106.390549 9.61083898,106.328915 9.62393714,106.266042 L9.68648097,105.941153 C9.70547377,105.833182 9.72261852,105.725146 9.73857484,105.603318 L10.2692273,104.446643 C10.5727501,103.750016 10.8577923,102.994626 11.1487311,102.088995 L11.391204,101.316128 L11.5620858,100.83506 L11.7896425,100.253733 L12.8924922,97.633631 L13.2015268,96.8722048 C14.4948404,93.6155411 15.1920694,90.8929812 15.285075,87.8098271 L15.2899348,87.4087627 L15.2495708,87.7373046 C15.4185137,86.5634788 15.4875833,85.3905178 15.4691497,84.1761413 L15.4474015,83.2035035 L15.4127878,82.5139864 L15.3691289,81.9798073 L15.3048308,81.3819355 L15.1384339,80.1239549 L14.5872536,76.4516543 C13.8294714,71.4972614 13.6026686,68.0482595 13.9693837,63.3163342 C15.022312,49.7298267 20.5189347,35.8422339 29.3044418,27.9750536 L29.8696743,27.4811302 C35.7814136,22.242347 42.9971989,17.9628587 51.6001651,14.6024096 L52.7819028,14.1498593 C61.241542,10.8063203 71.0428387,9.13381211 82.2773505,9.13381211 Z" id="Path-Copy-7" fill-rule="nonzero"></path><path d="M135.139809,26.4728474 C134.971483,26.4832799 134.803857,26.5029474 134.637687,26.5317611 C128.770238,27.5491752 123.029705,28.6391897 117.416063,29.8018576 C117.010948,29.8857628 116.618981,30.0238541 116.250734,30.2124068 C109.696307,33.5684583 107.112541,40.251762 108.28058,49.14497 L108.310734,49.3415798 C108.853114,52.4313175 110.169362,55.3671251 112.209504,58.1179942 C114.789562,61.5968706 118.825585,63.2713499 123.841549,63.2713499 C124.086704,63.2713499 124.331467,63.2517817 124.573507,63.2128316 L133.569074,61.7408596 L137.310994,61.0989467 L139.170987,60.7634645 L140.682101,60.4745002 L142.057632,60.1844172 L142.722222,60.0226894 L142.981885,59.9506789 L143.194503,59.8842839 C143.226076,59.8736741 143.255732,59.8632893 143.283493,59.8531251 C144.937573,59.2474986 147.287864,57.6454612 148.681554,56.4005656 L149.309225,55.8190102 C149.551333,55.5893291 149.777801,55.3594486 150.011399,55.0997009 C150.626805,54.415403 151.188638,53.6333115 151.698523,52.7106199 C152.728039,50.8476003 153.475694,48.5303669 153.911142,45.6622347 C154.45213,42.0989619 153.644106,38.6768504 151.980314,35.5061946 L151.690987,34.9719451 C151.012016,33.7567294 150.31089,32.7621891 149.691744,32.0116687 L149.349209,31.6138637 L149.514441,31.8293331 C146.513428,27.7467566 141.541297,26.0760976 135.139809,26.4728474 Z M142.250211,37.491571 L142.421309,37.6872337 C142.718677,38.0085333 143.285842,38.7669064 143.82142,39.7875474 C144.646725,41.3603158 145.010679,42.9017194 144.801548,44.2791875 C144.551014,45.9293556 144.191667,47.1304617 143.774938,47.9827748 L143.504848,48.4862859 L143.398969,48.6562185 C143.380982,48.6820399 143.362255,48.7072828 143.341933,48.7329547 L143.194037,48.9001979 L142.966868,49.1261098 L142.619419,49.45906 C142.496016,49.5769949 142.302991,49.73561 142.076574,49.909498 L141.589956,50.27011 C141.505011,50.3310966 141.41904,50.3918981 141.333385,50.4515737 L140.833978,50.7885864 C140.517879,50.9942157 140.249773,51.1517161 140.115544,51.2008629 L139.999384,51.2330249 L139.637423,51.311617 L138.108798,51.6008785 L133.03754,52.4824284 L127.464589,53.4089278 L123.496607,54.0517625 L122.974402,54.0299744 C121.212467,53.9119539 120.194391,53.4168722 119.6103,52.6293011 L119.260763,52.1388514 C118.367521,50.8324317 117.784091,49.5369196 117.484884,48.2364388 L117.400634,47.8175795 L117.349555,47.3989533 C116.847985,42.9231117 117.670499,40.3231695 119.676884,38.8832888 L119.978707,38.680991 L122.608961,38.1475363 C125.948474,37.4792136 129.333905,36.8363911 132.76525,36.2190804 L135.946545,35.655118 L135.709777,35.6691877 C139.103871,35.4588294 141.030841,36.0419769 141.958679,37.1210303 L142.250211,37.491571 Z" id="Path-2-Copy-7" fill-rule="nonzero" transform="translate(131.043368, 44.843697) rotate(-8.000000) translate(-131.043368, -44.843697) "></path><path d="M86.1346087,43.467292 L76.7769379,44.9216699 L73.8862268,45.3867844 L70.0578219,46.0262413 L67.4953879,46.483293 L65.650454,46.8480506 L65.0752889,46.9769137 L64.6275449,47.0896633 C61.003171,48.077386 57.6844448,50.8482725 55.8624468,54.1895661 L55.2251671,55.4445012 L54.8869944,56.1385423 C54.8345092,56.2489532 54.7833121,56.3581753 54.7324273,56.4683723 C52.7471648,60.7676918 52.1428824,64.8447079 53.7644304,69.4313129 L53.9658195,69.9948303 L54.3488291,71.0273417 L54.7117365,71.9473086 L55.0620489,72.7709149 C55.2930606,73.291462 55.5206805,73.758558 55.7549183,74.1937814 C56.3842005,75.3630128 57.0640148,76.3048653 57.9345182,77.2457508 L58.4878624,77.8220316 L59.7384186,79.0223578 C63.0751879,82.1714336 67.7511728,82.5525077 74.1116482,81.5828211 L76.4924119,81.20796 L79.4240139,80.7082234 L82.2710035,80.199627 L84.0324408,79.8750713 L87.653522,79.1806916 L89.7502186,78.7569351 L91.0179459,78.4895415 L92.1713628,78.2359913 C92.3535849,78.1949701 92.5306777,78.1545884 92.7024583,78.1148776 C93.1536184,78.010582 93.5864764,77.8388641 93.9864392,77.605513 C98.6872273,74.8629229 100.428383,73.2281917 102.314063,69.4531237 L102.753198,68.5424815 C102.827286,68.3838827 102.901941,68.221748 102.97734,68.0558927 C104.941093,63.7361905 104.838134,59.9258643 103.52946,55.4140096 C102.47232,51.7693537 100.732192,49.1430889 97.2956417,46.3204238 C94.2814129,43.8446392 90.4604031,42.9265775 86.1346087,43.467292 Z M91.4474281,53.4405317 C93.4531039,55.0879253 94.1432461,56.1295132 94.6802031,57.980756 C95.4331712,60.5767304 95.4793348,62.2851517 94.5894204,64.2427116 L94.2761348,64.9239075 L93.9807487,65.5361503 C93.3174485,66.8582366 92.7913394,67.4803241 91.4711154,68.3550492 L90.8539707,68.7481763 L89.9503267,69.2898525 L88.463256,69.6129228 L86.5385334,70.007904 L84.3936825,70.4288483 L81.7673025,70.9242406 L78.9474044,71.435809 L75.4469019,72.0413922 L73.6344174,72.332771 L72.3955132,72.5190375 C72.0802129,72.5624688 71.7742381,72.6004628 71.4781048,72.6332772 L70.6197451,72.7164388 L69.8235299,72.7700675 C69.5688263,72.7831934 69.324996,72.7916546 69.092555,72.7957087 L68.429916,72.7949075 L67.8387087,72.7692093 C66.9146094,72.7064898 66.3010411,72.5464711 66.0624979,72.321346 L65.0594498,71.3618099 L64.6978397,70.9883536 C64.345206,70.6072087 64.1215506,70.2973441 63.8684471,69.8270676 L63.6574933,69.4102762 C63.5847443,69.2583483 63.5093362,69.0927958 63.4305849,68.9117371 L63.1836167,68.3201602 L62.912484,67.6242558 L62.4514965,66.3600881 C61.7643008,64.4163312 62.0257393,62.6524386 63.0976406,60.3311103 L63.47626,59.5453552 L63.8761267,58.7461469 C64.4998008,57.490018 65.8810281,56.2980739 67.0502089,55.979446 L67.4129855,55.8903734 L68.1253106,55.7396692 L69.6780389,55.4463134 L73.0780396,54.8586222 L78.3285168,54.0047915 L87.4021948,52.5928002 C89.0870816,52.3837948 90.3152887,52.6316746 91.2262236,53.2722451 L91.4474281,53.4405317 Z" id="Path-3-Copy-7" fill-rule="nonzero" transform="translate(78.659524, 62.685295) rotate(-8.000000) translate(-78.659524, -62.685295) "></path><path d="M119.70873,71.3524373 C118.29955,71.673622 116.835051,72.0710528 115.244799,72.5507409 L113.668506,73.0393701 L111.335534,73.7932235 C105.451055,75.6991218 103.391395,80.4207807 102.628848,87.7289663 L102.605906,88.0736114 C102.439589,93.8124196 103.325574,96.5773401 107.421146,100.352419 C107.680272,100.591267 107.965948,100.799594 108.272569,100.973312 C109.882753,101.885574 111.419301,102.033359 113.935894,101.743485 L114.866513,101.623535 C115.02897,101.600692 115.195248,101.576468 115.36556,101.550929 L116.437562,101.382449 L120.625148,100.666673 L120.846064,100.649917 C124.539617,100.447986 131.478707,97.888047 133.898464,95.0988605 C136.153554,92.4994808 137.000781,89.5525706 137.472347,85.0331205 C138.035998,79.6311299 136.674506,75.132445 131.919537,71.879964 C131.730178,71.7504386 131.531407,71.6352388 131.324885,71.5353261 C128.315322,70.0793412 124.574631,70.2433857 119.70873,71.3524373 Z M127.079005,79.7587834 L127.192354,79.8505614 C128.268365,80.7929887 128.526975,81.9793457 128.308112,84.0769108 C128.019601,86.8419793 127.601301,88.2969514 126.938597,89.060832 C126.923298,89.0784671 126.88827,89.1054981 126.835334,89.1404753 L126.624627,89.2677959 L126.317401,89.4340954 L125.924583,89.6306752 L125.4571,89.8488368 L124.925879,90.0798817 L124.341847,90.3151115 L123.701498,90.5512307 L123.038519,90.774827 L122.395317,90.9738698 L121.794174,91.144031 L121.257372,91.2809829 C121.174505,91.3008004 121.095246,91.3190538 121.020061,91.3356529 L120.621547,91.414676 C120.507478,91.4339193 120.413417,91.4458244 120.343076,91.44967 C119.963812,91.4704048 119.558592,91.5148582 119.070842,91.5855288 L117.788467,91.7937203 L115.676403,92.1671615 L114.955193,92.288488 L114.069539,92.4248507 L113.304862,92.5244147 L112.653588,92.5864948 L112.570516,92.492171 C111.998888,91.8239251 111.822538,91.2605993 111.793776,90.1096097 L111.790547,89.4819365 L111.809587,88.5323409 L111.903832,87.7422674 C111.943329,87.4426602 111.985412,87.1576037 112.030105,86.8866635 L112.172028,86.1157575 C112.596437,84.0490506 113.210839,82.970859 114.028253,82.6143762 L114.86425,82.3347485 L116.951176,81.6655512 L117.905711,81.3721402 C119.308065,80.9491301 120.575802,80.605096 121.7563,80.3360333 C122.739402,80.1119616 123.631564,79.9528324 124.402389,79.8499377 L125.131642,79.7654653 C125.932623,79.6880306 126.554658,79.6831864 126.949476,79.7371044 L127.079005,79.7587834 Z" id="Path-6-Copy-7" fill-rule="nonzero" transform="translate(120.089501, 86.179683) rotate(-8.000000) translate(-120.089501, -86.179683) "></path><path d="M85.4414094,48.6480231 C87.2820923,48.2352659 87.5646028,48.5650469 88.5862138,48.9568039 C89.6078247,49.3485609 93.581224,51.6394846 95.1190826,56.8566765 C96.1443216,60.3348045 95.7332728,63.6137648 93.8859362,66.6935577 C92.5532634,69.1110603 90.1648116,70.2070039 86.7205809,69.9813885 C81.5542347,69.6429653 76.6354141,66.7961741 76.3334666,60.018565 C76.0315191,53.240956 83.6660686,49.046128 85.4414094,48.6480231 Z" id="Path-4-Copy-7" transform="translate(85.996353, 59.233892) rotate(-12.000000) translate(-85.996353, -59.233892) "></path><path d="M134.906279,32.5462334 C140.497786,31.378139 144.228709,31.6390305 146.099045,33.3289079 C148.635819,35.6209214 149.760412,36.9618984 149.232497,40.0001521 C149.176573,40.322007 147.473567,44.8833117 145.003816,49.3296175 C143.357314,52.2938214 141.717925,53.2856255 140.085649,52.30503 C132.666653,51.1704776 128.923876,47.8828266 128.857317,42.442077 C128.790758,37.0013275 130.807078,33.7027129 134.906279,32.5462334 Z" id="Path-5-Copy-7" transform="translate(139.107851, 42.250386) rotate(-12.000000) translate(-139.107851, -42.250386) "></path></g></g></svg>