<svg version="1" xmlns="http://www.w3.org/2000/svg" width="1181.333" height="1181.333" viewBox="0 0 886.000000 886.000000"><path d="M409.5 67.8c-.1.2-4.7.5-10.1.8-5.5.2-11.5.6-13.4.8-3.3.5-13.6 1.6-19 2.1-1.4.1-3.4.5-4.5.8-1.1.3-4.5.9-7.5 1.2-3 .2-6.6.7-8 1-1.4.3-3.7.7-5.2 1-1.5.2-3.5.6-4.5.9-1 .3-3.8.8-6.3 1.1-2.4.4-4.8.9-5.3 1.2-.4.3-1.8.6-3 .8-1.2.2-5.3 1.1-9.2 2-3.8.9-7.7 1.8-8.5 2-.8.2-1.5.4-1.5.5 0 .1-.8.3-1.7.6-2.9.7-4.2 1.1-5.8 1.7-.8.3-3.4 1.1-5.7 1.7-10.1 2.6-36.2 12-52.2 18.7-19.4 8.3-51.6 25.6-68.1 36.7-10.6 7.1-25.2 17.6-27.2 19.5-.9.9-3.4 2.9-5.4 4.6-2.1 1.6-6.1 5-8.9 7.5-2.7 2.4-6.1 5.3-7.4 6.5-2.3 2-4.8 4.5-15.2 15.5-6.3 6.7-13.9 16.5-13.9 17.9 0 .5-.6 1.4-1.3 1.8-1.5 1-6.7 8.9-6.7 10.2 0 .5-.3 1.1-.7 1.3-.8.3-1.5 1.6-9.2 16.3-4.1 7.8-7.3 14.9-15.2 33-.9 2.2-3.1 8-4.9 13-1.7 4.9-3.5 9.7-3.9 10.5-.4.8-1.8 4.9-3 9-1.3 4.1-2.9 9.3-3.6 11.5-2.1 6-5.2 17.1-8.1 28.6-2.6 10.4-3 12.3-3.9 16.9-.3 1.4-.7 3.6-1 5-.7 3.4-2.3 12.7-3 17-.3 1.9-.7 4.6-1 6-.8 4.6-2.6 20.3-3.1 26.5-1.1 15.8-1.4 26-1.3 43 .5 78.1.2 95.3-1.5 100.7-.3.7-.7 3.1-1 5.3-.3 2.2-1.2 7.1-2.1 11-.9 3.8-1.9 7.9-2.1 9-.2 1.1-2.4 8.3-4.9 16-4.6 13.7-5.1 15.5-6.1 20.4-.3 1.4-.7 2.7-.9 3-.5.9-1.9 14-1.9 18.1.1 19.8 7.4 35.6 19.3 41.8 4.5 2.4 11.6 4.9 11.6 4.2 0-.1 1.2.3 2.6.9 1.5.5 4.4 1.2 6.6 1.6 2.1.3 4.8.7 5.8.9 1.1.2 5.4.7 9.5 1.1 4.1.3 9.3.9 11.5 1.1 2.2.3 7.4.7 11.5.9 4.1.3 10.4.7 14 .9 3.6.3 12.4.8 19.6 1.1 7.1.3 17.5.9 23 1.1 5.4.3 10.6.5 11.4.5.8-.1 2.7-.1 4.1-.2 2.4 0 17.8 9.3 18.7 11.3.2.5.9.8 1.6.8.6 0 4.7 2.8 9.1 6.3 4.4 3.4 12.1 9.1 17 12.6 5 3.5 10.1 7.2 11.5 8.2 1.4 1 5.3 3.8 8.7 6.1 3.5 2.4 6.3 4.6 6.3 5 0 .5.5.8 1 .8.6 0 4.5 2.2 8.8 4.8 4.2 2.7 11.3 6.8 15.7 9.2 4.4 2.3 10.3 5.5 13 7 2.8 1.6 9.5 4.7 15 7 5.5 2.4 12.7 5.5 16.1 7 7.6 3.5 29.7 11.5 34.4 12.5 1.9.4 4 1 4.5 1.4.6.3 3.7 1.3 7 2.3 3.3.9 8.5 2.4 11.5 3.2 3 .9 6.6 1.9 8 2.1 1.4.2 4.3.9 6.5 1.4 4.9 1.2 8.9 2 13.5 2.6 1.9.3 4.5.7 5.7.9 1.2.3 5.3.8 9 1.2 3.7.4 8.2.8 9.8 1 3.9.5 31.1.5 35 0 1.7-.2 6.6-.7 11-1.1 4.4-.4 13-1.8 19-3.2 6.1-1.3 11.7-2.6 12.5-2.8 3.9-.9 25-8 29-9.7 10.9-4.9 44.2-21.9 46.5-23.8.6-.4 3.7-2.3 7-4 3.3-1.8 6.8-4 7.8-4.8.9-.8 1.7-1.2 1.7-.8 0 .4 1.2-.1 2.8-1.2 6-4.3 39.4-21.5 50.5-26.1 7.5-3.1 8.3-3.2 17-2.6 9.1.7 11.4.9 19.2 1.9 2.2.2 6.9.7 10.5 1 3.6.4 8.5.8 11 1 2.5.3 8.1.7 12.5 1 4.4.4 9.2.8 10.5 1.1 6.2 1.3 39.1 2 47 1.1 2.5-.3 6.3-.8 8.5-1 8.5-1 12.2-1.7 17.5-3.1 3-.9 6.2-1.7 7-1.9 4.8-1.2 22.5-8.4 28.7-11.7 22.7-12.2 36.8-27.3 42.5-45.7 2.7-8.9 3.3-14 3.2-27.2-.1-17.1-3.3-28-15.7-54-7.8-16.4-9.7-22-10.4-31-.9-10.1-.7-39.7.2-61 .9-18.7 1.1-63.4.4-78.9l-.4-9.4 3.9-2c2.1-1.1 5.6-3.6 7.7-5.6 2.1-2 5.7-4.6 8.1-5.9 13.2-6.9 24.1-22.1 27.5-38.2 2-9.6-.5-25.9-5.2-34.6-5.6-10.1-11.8-16.6-20.9-22-9.4-5.6-19.1-7.8-31.2-7.1l-10.2.6-3.1-9.7c-12.2-37.6-28.5-68.6-47.1-89.5-6.6-7.3-21.2-21.7-22.1-21.7-.5 0-.9-.4-.9-.8s-4.3-4.4-9.6-8.8c-5.3-4.3-10.2-8.4-10.8-8.9-4.1-3.6-25.8-19.1-30.7-22-1-.6-4.4-2.5-7.6-4.4-3.2-1.9-6-3.7-6.3-4.1-.9-1.1-19.8-11.5-32-17.6-17.7-8.9-39.7-18-60.5-24.9-7.7-2.5-14.7-4.9-15.5-5.2-.8-.3-2.4-.8-3.5-1-1.1-.2-3.1-.7-4.5-1.3-3.8-1.4-23.6-6.3-30.5-7.5-1.6-.3-3.7-.8-4.5-1-.8-.2-2.8-.7-4.5-1-11.2-2-20.6-3.5-24-4-23.4-3-23.8-3-42-4.1-11.5-.7-46.4-1.1-47-.6z"/></svg>