<svg height="81" viewBox="0 0 89 81" width="89" xmlns="http://www.w3.org/2000/svg"><g fill-rule="evenodd" transform="matrix(.9781476 .20791169 -.20791169 .9781476 13.598447 .705603)"><g fill-rule="nonzero"><path d="m40.5387501.00083566-1.4303264-.00083566c-5.6527132 0-10.6880819.82203388-15.0978503 2.47894048l-.5060426.19488732c-4.5864498 1.71832743-8.5240659 3.96739301-11.7697926 6.74023012l-.4194284.36464418c-5.30485744 4.5134882-8.44484445 12.30227-9.03701173 19.9295647-.18902624 2.4347156-.09208682 4.2850849.24765015 6.6575344l.33830481 2.2609401.07121173.5621229.01977095.2131533.01509946.2574123.00842927.3434337c.00541607.356158-.01408974.6868148-.06090988 1.0115381-.01463293.1014875-.02197708.2038758-.02197708.3063934 0 .970619-.21736378 1.8633277-.69821619 3.07003l-.15029597.366957-.42263149.9975464-.17175974.4252261c-.07774761.199697-.14410606.3827426-.20271685.5613881l-.11473253.3654216-.11084028.3269986c-.03591007.0996072-.07102545.1907575-.1060721.2762571l-.07144656.1660181-.24672404.5396676c-.01168576.0267737-.02183641.0505835-.02985281.0702149-.10703821.2621257-.1848635.5211781-.23871419.8065954l-.04128448.2476507-.07976611.3246188c-.27510224 1.1156788-.2979888 2.1782071.03280173 3.870457.63697999 3.2586463 3.72994535 6.2747891 6.97829788 6.5253525l.26786495.0187375.24740096.0114778.24332843.0027338.16805097-.0037681.17838279-.0087537.29757039-.0234405.34813606-.0371318.73711487-.0963423 2.38680513-.353636.652767-.0927645.5997471-.078009.5556977-.0637126c.3577754-.0378116.692165-.0663982 1.0151294-.0863718l.477373-.0235772c.1572648-.0057568.3131683-.0094369.4692058-.0111168.8583507-.0092406 1.6290517.0515958 2.3213804.1887866l1.2006961.2428953.4507677.0962674.4949729.1130679.2165954.0531934c.4938789.1244365.8559479.2399717 1.1933245.3804116l.4414249.1986956.2713143.139531.4497217.2600885 2.1786115 1.3404359c2.6937252 1.668077 5.4726392 2.423135 9.5453732 2.5511468l.7110826.0158558c.6035065.0081833 1.234827.0041045 1.8974852-.0120065l.8104574-.0246204.8418947-.0354648.8746851-.0459889.9088286-.0561929c3.3598553-.221928 6.4143018-1.0961656 9.3140035-2.4563796l.477175-.2323648.5295866-.2715392.556284-.2949512 1.0060214-.5504426.7748733-.4357841.1896569-.1096522 1.0632577.1948589 3.2452044.643363.8641661.1664816.7833359.1439568.7343084.1268691c.474069.0788925.9180706.1464202 1.3372404.202637l.6107852.075849c.7912936.089839 1.4937308.1345427 2.1491952.1345427 3.7449851 0 6.9723282-1.8844072 10.6301507-6.0864285.1178272-.1353572.2182959-.2846375.2991163-.4444386l.1536977-.3113568c1.8505141-3.8423817 2.0357781-7.7566476.8986962-10.212806l-.0610161-.1242748-.0614793-.2449009c-.1305753-.5395395-.2483132-1.1847489-.3533272-1.9248411l-.0868987-.6573497c-.0139646-.1133472-.0276703-.2285679-.0411173-.3456306l-.0775803-.724229-.0713879-.7669283-.06792-.8438727-.0633076-.9165816-.0565339-.959218c-.0089199-.1638788-.0176041-.3298764-.0260759-.4981636l-.1466784-3.4973017-.0293397-.5429628-.0391449-.5917118-.0485362-.6313504c-.0088489-.1080222-.018072-.2173163-.0276605-.3276927l-.0913074-.9727756c-.0115233-.1144337-.0322243-.227777-.061907-.3389556l-3.8337602-14.3596415c-.0461066-.1726959-.1135932-.3390807-.2009235-.4953665-1.887373-3.377635-5.1939542-7.42744505-9.1110726-10.53191756-.0814541-.06455563-.1674656-.12325576-.2573758-.17565093-4.6553835-2.71292432-8.2681578-3.90438835-13.5776451-4.37023313l-.8094909-.06453405c-.4114505-.02964543-.8332155-.05543309-1.2664506-.07769871l-.882106-.03993469-.9147474-.03113948-.9494433-.02294115-.9861938-.01533971-1.0249986-.00833514c-.174181-.00083864-.3500645-.00141029-.5276932-.00172739zm-1.4316144 4.33272483 1.9160585.00237025.966549.00739694.926363.01358777.888314.02034705.852402.02767477c.139193.00525468.2769788.01083838.4134018.01676292l.8025407.03973219.7719712.04848101c.1262331.00884082.2512815.01806986.3751898.02769896l.7301236.06267009.7048966.07284004c3.9269733.44264873 6.7417718 1.40252958 10.1942289 3.34510301l.4700868.2684096.2782231.22451174c3.1434147 2.58048717 5.8363256 5.85917267 7.4281947 8.58960407l.0633069.1112862 3.7181995 13.9271979.0693148.7492077.0486101.5933159.0401604.5598852.0312474.5162255.1342145 3.2282894.0622374 1.2188726.0708496 1.1538973c.0126348.1876979.0257102.3732857.039267.557062l.0421553.5461929c.2061205 2.5545246.4992896 4.5949825.9331175 6.0993995.0302555.1049194.0684461.2073494.1142131.3064296l.0742881.1460003c.2088335.3745596.3795172 1.2158135.3455374 2.2469602l-.014124.2842431c-.0822063 1.2409308-.4384798 2.5999896-1.1093029 4.0143813l-.0462844.0922757-.3053552.342074c-2.6575126 2.9221741-4.6801893 4.0315583-6.8271234 4.0315583-.5029279 0-1.0798271-.0395507-1.7572735-.1196443l-.5273527-.0676875-.5675494-.0829841-.6102377-.0983738-.6554173-.1138564-.7030885-.1294321-4.5728212-.8982078-.6502753-.1153745-.4147375-.0656379-.4491616-.0652565c-.3671748-.0519706-.7406154-.0104552-1.0855084.1192381l-.1824949.0788371-1.5117378.8527-.7500827.4146816-.5772547.312539-.6364148.3339316-.3749149.1877594c-.0581088.0283036-.1138118.0549794-.1667831.0798276-2.4332872 1.1414247-4.9659799 1.866327-7.7330001 2.0490966l-.8412286.0522364-.8045683.0429501-.769345.0334495-.7355592.0237343-.7032104.0138046-.672299.0036603-.6428248-.0066985c-.1047611-.0019915-.208354-.0044236-.3108087-.0073008l-.6013083-.0226388c-.2940641-.0140253-.5784228-.0321363-.8538846-.0544536l-.5393004-.0502787c-2.1996537-.2331612-3.8188915-.7640142-5.3255664-1.6623894l-2.3276049-1.4326593-.5572357-.3290075-.3412433-.1854848-.3393774-.1643216-.2960113-.134238c-.5494006-.2476041-1.0972833-.4403868-1.7550552-.6195291l-.4635259-.1197429-.3951811-.093844-.7813817-.1704468-.5829154-.1197896-.698809-.1397537c-1.0124942-.2006344-2.0816999-.2850336-3.2268924-.272705-.9505323.0102331-1.8591098.077315-2.9440769.2092856l-.6738938.0870333-.7267079.1029925-2.34389076.3460619-.58726844.0754841-.34162507.0339381-.2034403.0124377-.17391499.0030046-.15853178-.0048774-.10412537-.0068645c-1.19325622-.0920425-2.74504361-1.6052868-3.02329541-3.0287604l-.0731352-.400085c-.12370567-.7374933-.11503247-1.1195776-.0281502-1.5179675l.11822177-.4871048c.00663884-.0295251.01298377-.0587673.01920944-.0885978l.02972763-.1541444c.00902744-.0512271.01717648-.1024853.02476066-.1602867l.25222371-.5487874c.144267-.3305164.27975004-.688913.41803576-1.1185923l.11524947-.3666887.08122158-.2282437.10815966-.2758121.52419399-1.2431142.14688685-.3612605c.61472311-1.5451325.94612209-2.8368579.99032846-4.2996683l.00230988-.190286-.01918535.1558775c.08030002-.5569246.11312941-1.113439.10436772-1.689603l-.0103371-.4614705-.01645216-.3271432-.02075144-.2534426-.03056144-.2836618-.07908991-.5968521-.26198078-1.7423324c-.36018039-2.3506244-.46798176-3.9870122-.29367889-6.2320862.50046591-6.4461532 3.1130582-13.0351571 7.28888561-16.7677609l.2686599-.2343432c2.8099008-2.4855541 6.2396259-4.5159682 10.3286901-6.11034187l.5616902-.21471365c4.0209396-1.58635061 8.6795806-2.37987639 14.0194411-2.37987639z"/><path d="m66.2478821 12.8943956c-.0795986.0049333-.1588663.0142337-.2374451.0278593-2.7746206.4811184-5.4892244.9965684-8.1438238 1.546375-.1915721.0396774-.3769267.1049785-.5510646.194142-3.0994814 1.5870217-4.3213018 4.7474464-3.7689552 8.9528986l.0142592.0929735c.2564825 1.4610863.8789146 2.8493816 1.8436644 4.1502224 1.2200672 1.6451036 3.1286363 2.4369374 5.5006033 2.4369374.1159295 0 .2316741-.0092535.3461311-.0276723l4.2538559-.6960714 1.7694926-.3035501.87956-.1586441.7145812-.1366464.6504663-.1371755.3142736-.0764784.1227902-.0340526.1005436-.0313971c.0149305-.0050172.0289544-.009928.0420818-.0147345.7821872-.2863909 1.8936014-1.0439681 2.5526548-1.6326588l.2968151-.275008c.1144892-.1086124.2215822-.2173192.3320466-.3401496.2910153-.3235932.5566968-.6934314.7978132-1.1297572.4868415-.8809914.8403949-1.9767731 1.0463115-3.3330657.255824-1.6850133-.1262773-3.3032737-.9130569-4.8026248l-.1368182-.2526378c-.3210742-.5746556-.652625-1.0449574-.9454094-1.3998662l-.161979-.1881154.0781357.1018919c-1.41913-1.9305835-3.7703691-2.7206107-6.7975279-2.5329942zm3.3623925 5.2105736.0809097.0925257c.1406204.1519373.4088233.5105595.6620893.9932039.3902732.7437364.5623811 1.4726408.4634862 2.124023-.1184732.7803374-.2884026 1.3483208-.4854668 1.7513656l-.1277213.2381022-.0500681.0803583c-.0085059.0122105-.0173617.0241475-.0269715.0362873l-.0699378.0790865-.1074244.1068301-.1643029.1574467c-.0583552.0557694-.1496338.1307759-.2567024.2130047l-.2301138.1705275c-.0401689.0288396-.0808232.0575916-.1213281.0858112l-.2361616.1593678c-.1494779.0972387-.2762606.1717181-.3397353.1949588l-.0549305.0152089-.1711653.0371649-.7228616.136787-2.398115.4168705-2.635357.4381264-1.8763935.3039859-.2469424-.0103032c-.8331901-.0558099-1.3146214-.2899259-1.5908283-.6623554l-.1652907-.2319256c-.4223991-.6177845-.6982939-1.2304109-.839784-1.8453869l-.0398403-.1980717-.0241545-.1979615c-.2371841-2.1165521.1517692-3.3460221 1.1005558-4.026918l.1427272-.0956634 1.243804-.2522619c1.5792007-.3160389 3.1801157-.6200191 4.8027424-.9119352l1.5043822-.2666886-.1119635.0066533c1.6050113-.0994749 2.5162436.1762859 2.955003.6865526z" transform="matrix(.99026807 -.1391731 .1391731 .99026807 -2.37772 9.160357)"/><path d="m43.0741267 20.9307897-4.425089.6877514-1.3669699.219945-1.8103899.3023887-1.211733.2161323-.872439.1724878-.2719861.0609373-.2117308.0533174c-1.713907.4670779-3.2832782 1.7773847-4.1448712 3.3574276l-.3013591.5934382-.1599163.3282007c-.0248194.0522115-.0490296.1038608-.0730922.1559712-.9387981 2.0330777-1.2245534 3.9610317-.4577499 6.129962l.0952336.2664781.181119.4882577.1716129.4350373.165657.3894699c.1092416.2461582.2168794.4670402.3276466.6728502.2975772.5529104.6190502.998297 1.030697 1.4432263l.2616674.2725137.5913675.5676146c1.5779035 1.4891463 3.7891001 1.66935 6.7968646 1.2108011l1.1258241-.1772657 1.3863065-.2363172 1.3462947-.2405069.8329548-.1534771 1.7123499-.3283608.9914934-.2003874.5994875-.1264461.5454319-.1198997c.0861698-.0193983.1699141-.0384941.2511464-.0572727.2133462-.0493197.4180376-.1305223.6071735-.2408702 2.2229255-1.2969258 3.0462893-2.0699634 3.9379967-3.8551312l.2076599-.4306277c.0350349-.0749988.070338-.1516696.1059927-.2300999.9286269-2.0427163.8799389-3.8445571.2610888-5.9781391-.4999044-1.723498-1.3227823-2.9654156-2.9478706-4.3002076-1.4253793-1.1707579-3.2322722-1.6048943-5.2778694-1.3491992zm2.5123452 4.7161814c.9484511.7790255 1.2748081 1.2715753 1.5287262 2.1469976.3560663 1.2275938.3778963 2.0354782-.0429296 2.9611761l-.1481476.3221264-.1396833.2895196c-.3136638.6251929-.5624521.9193679-1.1867644 1.333011l-.2918376.1859034-.4273184.2561498-.7032114.1527746-.9101697.1867802-1.0142648.1990576-1.2419721.2342629-1.3334835.2419123-1.6553303.2863704-.8570942.1377882-.5858574.0880824c-.1491003.0205379-.2937908.0385047-.4338274.0540221l-.4059042.0393257-.3765171.0253602c-.1204452.006207-.2357486.0102081-.3456661.0121253l-.3133511-.0003789-.2795722-.0121523c-.4369914-.029659-.7271378-.1053292-.839941-.2117872l-.474325-.4537489-.1709995-.1766013c-.1667546-.1802372-.2725176-.3267671-.3922061-.5491531l-.0997566-.1970938c-.0344018-.0718442-.0700611-.1501313-.1073013-.235751l-.1167872-.279747-.1282142-.3290818-.2179934-.5978041c-.3249636-.9191708-.2013336-1.7532867.3055509-2.8510048l.179043-.3715707.1890903-.3779324c.2949253-.5940028.948085-1.1576536 1.5009714-1.3083275l.1715511-.042121.3368469-.0712656.7342598-.1387231 1.6078045-.2779095 2.4828646-.4037625 4.2907935-.6677076c.7967553-.0988352 1.3775543.0183831 1.8083204.3212984z" transform="matrix(.99026807 -.1391731 .1391731 .99026807 -3.792998 5.794944)"/><path d="m58.950778 34.1172175c-.6663781.151883-1.3589157.3398215-2.1109197.5666581l-.7454032.2310648-1.103224.3564849c-2.7826737.901268-3.7566534 3.134063-4.1172492 6.5899842l-.010849.162977c-.0786485 2.7137883.3403191 4.0212738 2.2770483 5.8064465.1225363.1129474.2576278.2114618.4026238.2936104.7614294.4313936 1.4880378.5012787 2.6780934.3642018l.4400744-.056722c.0768235-.010802.1554533-.0222573.2359911-.0343343l.5069326-.0796716 1.9802403-.3384785.1044676-.0079238c1.7466206-.0954897 5.0280027-1.3060429 6.1722661-2.6250035 1.0663952-1.229204 1.4670346-2.6227495 1.6900304-4.7599233.2665416-2.5545127-.3772856-4.681867-2.6258324-6.219912-.0895451-.0612504-.1835405-.1157265-.2812015-.1629736-1.4231727-.6885114-3.1920841-.6109374-5.493089-.0864851zm3.485282 3.9752232.0536009.0434003c.5088283.4456584.6311204 1.0066672.5276237 1.9985713-.1364323 1.3075556-.3342392 1.995588-.6476211 2.3568146-.0072348.0083393-.0237989.0211219-.0488312.037662l-.0996402.0602079-.1452822.0786402-.1857571.0929594-.2210649.103165-.2512056.1092574-.2761792.1112363-.3028106.1116569-.3135121.105735-.3041595.0941241-.2842705.0804665-.253845.0647623c-.0391867.0093713-.0766667.018003-.1122203.0258525l-.188451.0373687c-.0539413.0090998-.0984214.0147296-.1316844.0165481-.1793477.0098051-.3709695.0308265-.6016184.0642454l-.6064142.0984503-.9987606.1765943-.3410483.0573733-.4188111.0644837-.3616031.0470822-.3079768.0293566-.0392834-.0446042c-.2703137-.3160025-.3537069-.58239-.3673079-1.1266741l-.0015268-.2968164.0090038-.4490482.0445668-.3736128c.0186773-.1416793.0385781-.2764779.0597124-.404601l.0671133-.3645488c.2006959-.9773118.4912363-1.4871709.8777782-1.6557458l.3953293-.1322314.986873-.3164524.4513841-.1387492c.6631503-.2000346 1.2626421-.3627226 1.82088-.489958.4648929-.1059598.8867819-.1812094 1.2512922-.2298666l.3448518-.0399456c.3787708-.0366176.672921-.0389084.859624-.0134115z" transform="matrix(.99026807 -.1391731 .1391731 .99026807 -5.148562 8.629685)"/></g><path d="m42.3927283 23.4074554c.854693-.2554287.9988405-.1091796 1.4936895.041925.4948491.1511046 2.4447974 1.1007366 3.3423518 3.5111224.5983697 1.6069239.512627 3.1672725-.257228 4.6810459-.5489185 1.184373-1.6394754 1.7801758-3.2716704 1.7874083-2.4482926.0107027-4.8625623-1.1699632-5.2285714-4.3572159-.3660092-3.1872526 3.0970762-5.4179244 3.9214285-5.6642857z" stroke="#000" stroke-linecap="square" stroke-linejoin="round" transform="matrix(.99026807 -.1391731 .1391731 .99026807 -3.526576 6.264896)"/><path d="m65.8127325 15.9263434c2.5991598-.7354725 4.3677599-.7354725 5.3058005 0 1.2722826.9975356 1.8470229 1.5930203 1.6982108 3.043675-.0157642.1536739-.6686636 2.3615623-1.6870549 4.5404946-.6789275 1.4526215-1.4195629 1.9745649-2.2219061 1.5658304-3.5372003-.2904762-5.4112356-1.7179035-5.6221059-4.2822819-.2108704-2.5643783.6314815-4.186951 2.5270556-4.8677181z" stroke="#000" stroke-linecap="square" stroke-linejoin="round" transform="matrix(.99026807 -.1391731 .1391731 .99026807 -2.161992 9.667783)"/></g></svg>