<svg height="12" viewBox="0 0 13 12" width="13" xmlns="http://www.w3.org/2000/svg"><g fill="none" fill-rule="evenodd" stroke="#000" transform="matrix(-1 0 0 1 12.5 0)"><path d="m4.72188401.64928511c-1.20125312.28568313-2.24949855.96569283-3.00113263 1.89524675-.76356727.9443118-1.22075138 2.14651462-1.22075138 3.45546814 0 1.26733219.42854954 2.43460381 1.14862981 3.36456572.7104946.91758228 1.70451209 1.60447508 2.85053904 1.92834498 1.14717037-.3242646 2.14151955-1.011201 2.85212701-1.92867652.72026449-.92994386 1.14870414-2.09707217 1.14870414-3.36423418 0-1.25003138-.41663299-2.40258123-1.09155839-3.33353272-.6837527-.94312734-1.63277197-1.66058428-2.6865576-2.01718217z" fill="#000"/><circle cx="6" cy="6" r="5.5"/></g></svg>