<svg height="12" viewBox="0 0 13 12" width="13" xmlns="http://www.w3.org/2000/svg"><g fill="none" fill-rule="evenodd" stroke="#000" transform="matrix(-1 0 0 1 12.5 0)"><circle cx="6" cy="6" r="5.5"/><path d="m6 .5c-1.51878306 0-2.89378306.61560847-3.8890873 1.6109127-.99530423.99530424-1.6109127 2.37030424-1.6109127 3.8890873s.61560847 2.89378306 1.6109127 3.8890873c.99530424.9953042 2.37030424 1.6109127 3.8890873 1.6109127.34605441 0 .68465353-.031926 1.01296962-.0930357-.66826589-.4762724-1.24405409-1.0899911-1.69112124-1.80429668-.64468267-1.0300476-1.02175223-2.26910689-1.02175223-3.60266762 0-1.33344345.37700146-2.57240232 1.02173814-3.60246967.44706996-.71426395 1.02290072-1.32801699 1.69148606-1.80441209-.32843529-.06116986-.6671475-.09311824-1.01332035-.09311824z" fill="#000"/></g></svg>