<svg height="11" viewBox="0 0 13 11" width="13" xmlns="http://www.w3.org/2000/svg"><g fill="none" fill-rule="evenodd" stroke="#000" stroke-linejoin="round"><g stroke-linecap="square"><path d="m1 .5v10"/><path d="m1 .5h4.5c.82842712 0 1.5.67157288 1.5 1.5s-.67157288 1.5-1.5 1.5h-4.5z"/><path d="m1 7.5h2.5c.82842712 0 1.5.67157288 1.5 1.5s-.67157288 1.5-1.5 1.5h-2.5z"/></g><path d="m3.5 5.5h1" stroke-linecap="round"/><g stroke-linecap="round" transform="matrix(0 1 1 0 8.5 .5)"><path d="m0 2h3"/><path d="m1.5 0 2 2.07267853-2 1.92732147"/></g><g stroke-linecap="round" transform="matrix(0 -1 1 0 8.5 10.5)"><path d="m0 2h3"/><path d="m2 0 2 2.07267853-2 1.92732147"/></g></g></svg>