<svg xmlns="http://www.w3.org/2000/svg" width="9" height="11" viewBox="0 0 9 11"><g fill="#000" fill-rule="nonzero"><path d="M8.458 7.584s-1.069 3.05-2.668 2.708c0 0-.324-.05-.5-.167 0 0-.873-.451-1.824.02 0 0-.952.431-1.501-.099 0 0-1.531-1.216-1.904-3.531 0 0-.354-1.943.687-3.179 0 0 1.02-1.157 2.393-.726l.903.314s.157.118.53-.02c0 0 1.02-.47 1.727-.392 0 0 1.118-.02 1.883 1 0 0-1.256.609-1.1 2.178 0 0-.097 1.139 1.374 1.894zM4.201 2.394S4.063.413 6.301 0c0 0 .039 2.335-2.1 2.394z"/></g></svg>