<svg height="12" viewBox="0 0 11 12" width="11" xmlns="http://www.w3.org/2000/svg"><path d="m7.322 6.216.882-3.612h-1.148l-.224.756c-.15866667-.364-.39666667-.61833333-.714-.763s-.62533333-.217-.924-.217c-.45733333 0-.875.10266667-1.253.308s-.7.476-.966.812-.47133333.71866667-.616 1.148-.217.86333333-.217 1.302c0 .32666667.05833333.63466667.175.924s.27533333.54366667.476.763.434.392.7.518.54833333.189.847.189.58333333-.06533333.854-.196.49-.336.658-.616h.028c.01866667.23333333.119.42466667.301.574s.42233333.224.721.224c.224 0 .52033333-.077.889-.231s.73266667-.39433333 1.092-.721.66733333-.74666667.924-1.26c.2566667-.51333333.385-1.12933333.385-1.848 0-.644-.1353333-1.22966667-.406-1.757-.27066667-.52733333-.63-.97533333-1.078-1.344s-.966-.65566667-1.554-.861-1.19933333-.308-1.834-.308c-.728 0-1.414.13533333-2.058.406s-1.20866667.63933333-1.694 1.106-.868 1.01966667-1.148 1.659-.42 1.32766667-.42 2.065c0 .74666667.14 1.43966667.42 2.079s.665 1.19233333 1.155 1.659 1.06166667.83066667 1.715 1.092c.65333333.2613333 1.35333333.392 2.1.392.87733333 0 1.68933333-.1936667 2.436-.581.74666667-.38733333 1.358-.945 1.834-1.673h-1.176c-.364.364-.80966667.64633333-1.337.847s-1.085.301-1.673.301c-.59733333 0-1.15033333-.098-1.659-.294s-.945-.47366667-1.309-.833-.64866667-.78866667-.854-1.288-.308-1.057-.308-1.673c0-.588.09333333-1.13633333.28-1.645s.45266667-.94733333.798-1.316.763-.658 1.253-.868 1.03366667-.315 1.631-.315c.532 0 1.029.07466667 1.491.224s.86333333.371 1.204.665.609.65333333.805 1.078.294.917.294 1.477c0 .37333333-.049.71866667-.147 1.036s-.224.59033333-.378.819-.33133333.406-.532.532-.399.189-.595.189c-.084 0-.14466667-.03033333-.182-.091s-.056-.13766667-.056-.231.01166667-.19366667.035-.301.049-.20766667.077-.301zm-3.752-.448c0-.23333333.042-.47133333.126-.714s.203-.46433333.357-.665.33833333-.364.553-.49.448-.189.7-.189c.29866667 0 .553.112.763.336s.315.50866667.315.854c0 .24266667-.042.49-.126.742s-.203.47833333-.357.679-.336.36633333-.546.497-.441.196-.693.196c-.32666667 0-.59033333-.11433333-.791-.343s-.301-.52966667-.301-.903z" transform="translate(.504 .766)"/></svg>