<svg height="200" viewBox="0 0 310 200" width="310" xmlns="http://www.w3.org/2000/svg"><g fill="#e3e3e3" fill-rule="evenodd"><path d="m9.9464 22.6888c-.339-.09-.727 0-.973.258-1.331 1.394.55 2.359 1.833 1.978.891-.264 1.715-.808 2.331-1.5.27-.304.537-1.032.868-1.234.858-.522 1.933.716 2.506 1.162 1.003.783 2.428-.623 1.414-1.414-1.114-.869-2.681-2.707-4.272-2.035-.835.352-2.325 3.154-3.569 2.822z"/><path d="m42.2684 40.5388c.832-.573 2.609 1.332 3.204 1.805.997.794 2.421-.613 1.414-1.414-1.442-1.148-3.642-3.484-5.627-2.118-1.054.725-.055 2.459 1.009 1.727"/><path d="m74.2724 64.49c.097-.106.882.018 1.087-.005.521-.057.962-.254 1.381-.566.29-.216 1.833-2.289 2.228-1.971.995.798 2.419-.608 1.414-1.415-1.198-.961-2.635-.593-3.668.472-.648.667-.939 1.453-1.958 1.483-.762.023-1.344-.021-1.899.587-.865.95.545 2.369 1.415 1.415"/><path d="m112.5238 26.3244c.144-.193 1.614 2.208 1.851 2.445.815.819 1.963 1.188 3.1 1.036 1.257-.167 1.274-2.169 0-2-2.173.29-2.06-1.966-3.473-2.939-1.094-.752-2.411-.621-3.205.448-.768 1.034.967 2.032 1.727 1.01"/><path d="m146.3827 8.0769c.856-.393 1.962 1.799 2.39 2.293.656.758 1.471 1.239 2.488 1.236014 1.287-.004014 1.289-2.004014 0-2.000014-1.158.004-1.856-1.929-2.616-2.619-.964-.874-2.07-1.187-3.271-.637-1.169.535-.154 2.259 1.009 1.727"/><path d="m1.8241 71.6545c-.135-.042-.101-.039.104.009.053.031.106.061.159.092.209.211.298.589.395.857.204.565.391 1.118.762 1.599.688.892 1.77 1.342 2.886 1.274 1.278-.079 1.287-2.08 0-2-1.92.117-1.623-2.322-2.808-3.29-.96-.784-2.656-.819-3.225.449-.522 1.165 1.201 2.184 1.727 1.01"/><path d="m41.0975 103.7942c.007.103 1.084.754 1.258.864.449.284.948.493 1.486.503.468.008.894-.122 1.277-.399.223-.162.82-1.084 1.05-.987 1.184.499 1.701-1.435.532-1.928-.775-.326-1.58-.029-2.148.561-.456.473-.635.749-1.338.425-.361-.167-.652-.517-1.016-.702-1.317-.669-3.214-.031-3.101 1.663.085 1.277 2.086 1.287 2 0"/><path d="m124.1425 88.0061c.86 1.252 2.456 1.176 3.53.211 1.508-1.355.73-3.298.615-5.021-.086-1.277-2.087-1.286-2 0 .064.961.481 2.035.314 2.989-.049.285-.119.467-.377.638-.084.056-.183.114-.284.132-.172.03-.124-.035-.071.041-.724-1.054-2.458-.055-1.727 1.01"/><path d="m179.5228 54.7859c-.363 1.224.327 2.369 1.42 2.939.807.421 3.948.133 3.789 1.366-.164 1.273 1.837 1.26 2 0 .149-1.156-.665-2.121-1.675-2.573-.594-.266-3.89-.238-3.606-1.2.367-1.237-1.563-1.765-1.928-.532"/><path d="m220.5726 27.4773c.808-.717 2.176-.445 2.717.458.66 1.104 2.39.099 1.727-1.009-1.23-2.055-4.089-2.433-5.859-.863-.964.856.455 2.266 1.415 1.414"/><path d="m292.3954 9.3645c-1.362.41-1.971 1.701-1.838 3.064.178 1.822 1.752 2.753 2.742 4.119.748 1.032 2.485.035 1.727-1.01-.395-.545-3.804-3.731-2.099-4.245 1.229-.37.705-2.301-.532-1.928"/><path d="m259.1957 58.7063c-.112.004-.064.123-.107.327-.055.263-.231.518-.338.767-.222.518-.375 1.02-.295 1.591.139.987.873 1.797 1.908 1.771 1.285-.032 1.29-2.032 0-2 .124-.003.076-.142.118-.336.057-.264.232-.518.339-.767.222-.519.374-1.022.291-1.592-.145-.981-.881-1.8-1.916-1.761-1.283.048-1.29 2.048 0 2"/><path d="m304.0951 88.6418c.076-.105.519.189.57.237.216.201.301.563.381.83.185.622.26 1.267.504 1.873.471 1.171 1.377 2.032 2.674 2.085 1.288.052 1.285-1.948 0-2-.845-.034-.995-1.427-1.14-2.044-.191-.811-.466-1.651-1.092-2.235-1.088-1.013-2.747-.974-3.624.245-.753 1.046.981 2.045 1.727 1.009"/><path d="m226.9188 99.0095c-1.121-.561-2.543-.28-3.219.844-.371.617-.37 1.356-.177 2.032.114.395.345.75.46 1.144.079.138.109.284.091.437-.124.189-.095.24.088.154-1.22-.42-1.743 1.512-.532 1.929 1.233.424 2.228-.634 2.41-1.781.104-.663-.1-1.195-.344-1.798-.087-.215-.612-1.648.214-1.234 1.148.574 2.161-1.15 1.009-1.727"/><path d="m165.1869 115.6863c.727.704.22 2.401.515 3.348.33 1.061 1.091 1.806 2.224 1.866 1.286.069 1.282-1.931 0-2-.6-.031-.393-1.815-.4-2.139-.018-.947-.228-1.815-.925-2.489-.925-.896-2.341.517-1.414 1.414"/><path d="m280.9716 134.7219c-.254 2.472 1.193 4.953 3.485 5.924 1.171.497 2.192-1.225 1.01-1.726-1.718-.729-2.686-2.338-2.495-4.198.131-1.279-1.87-1.27-2 0"/><path d="m227.9628 164.456c-.063-1.281-2.063-1.288-2 0 .016.329-.526597 1.264182-1.041318 2.117315-.599016.992851-1.065682 1.568685-2.084682 1.663685-1.271.118-1.283 2.119 0 2 2.413-.225 5.191-4.457 5.126-5.781z"/><path d="m269.5052 185.3894c-1.607-.093-2.987 1.149-3.273 2.702-.142.773.028 1.522.468 2.171.488.72 1.456 1.197 1.591 2.096.19 1.269 2.117.73 1.928-.532-.163-1.085-.97-1.66-1.653-2.433-.723-.817-.2-2.069.939-2.004 1.286.074 1.282-1.926 0-2"/><path d="m113.8729 132.74c-1.333.214-2.75.816-2.892 2.344-.068.732.253 1.398.652 1.99.202.3.487.583.634.916.071.152.114.312.131.479-.065.234-.031.265.1.09-1.182.471-.667 2.406.531 1.929 1.181-.471 1.584-1.583 1.254-2.789-.193-.707-.687-1.152-1.023-1.779-.205-.383-.411-.616-.028-.951.255-.224.852-.249 1.173-.3 1.267-.204.729-2.132-.532-1.929"/><path d="m149.3602 156.6775c-.061.07-.071-.146.102.036.133.14.18.29.236.47.168.544.16 1.126.349 1.667.363 1.032 1.119 1.771 2.237 1.845 1.285.085 1.28-1.916 0-2-.372-.024-.464-.993-.504-1.235-.114-.686-.249-1.378-.7-1.932-.753-.924-2.286-1.242-3.135-.265-.839.968.569 2.389 1.415 1.414"/><path d="m178.9433 196.2385c.558-.399 3.198 2.132 3.944 2.44.589.244 1.213.401 1.854.345.172-.014 2.205-.604 1.917-.924.864.957 2.275-.461 1.414-1.414-.576-.639-1.195-.663-1.973-.377-.383.141-.704.464-1.078.594-1.061.366-1.876-.298-2.634-.898-1.155-.917-2.918-2.592-4.453-1.493-1.038.743-.041 2.478 1.009 1.727"/><path d="m12.7665 135.9568c.526-.369 1.172-.449 1.731-.08.623.41.605 1.191.753 1.85.275 1.223 1.207 2.461 2.598 2.275 1.256-.169 1.273-2.17 0-2-.811.109-.805-1.74-1.019-2.285-.241-.615-.657-1.131-1.213-1.492-1.165-.757-2.709-.801-3.859.005-1.047.733-.048 2.468 1.009 1.727"/><path d="m58.5621 159.4603c-.539.038-1 .428-1 1 0 .644.001 1.288.001 1.933 0 .522.458 1.023 1 1 1.132-.05 2.26-.003 3.38.179 1.259.205 1.669228-1.518125.400228-1.724125-1.299-.212-2.9611092.545125-3.2779944-.203875s1.7327664-2.339.4457664-2.25c-.422.029333-.7383333.051333-.949.066z"/><path d="m96.6859 182.6565c-.031.037-.201-.018-.222.017.004-.007.102.038.103.045.026.152.152.353.181.534.105.63.098 1.264.435 1.831.545.915 1.842 1.531 2.788.823.435-.327.647-.861.359-1.369-.245-.428-.937-.682-1.369-.359-.109.082.124.049.145.064-.088-.063-.163-.103-.22-.201-.106-.183-.1-.472-.125-.678-.08-.657-.161-1.311-.591-1.842-.688-.851-2.115-1.219-2.898-.279-.819.982.589 2.404 1.414 1.414"/><path d="m19.6781 194.2248c.408-.628 1.653.564 1.952.789.488.367.996.676 1.598.805 1.075.232 2.063-.155 2.66-1.063.709-1.079-1.022-2.082-1.727-1.01-.408.622-1.658-.575-1.955-.798-.487-.366-.995-.674-1.598-.803-1.073-.228-2.066.159-2.657 1.07-.703 1.083 1.028 2.087 1.727 1.01"/><path d="m78.6068 2.0325c.048-.252.008-.007-.059-.002-.136.009.017-.017.02-.016-.075.027-.078.03-.009.008.05-.016.101-.029.152-.038-.13.021.084 0 .125.001.357.01.684.085 1.067.235.502.198 1.098-.217 1.23-.698.156-.568-.194-1.032-.698-1.23-1.278-.504-3.432-.506-3.757 1.208-.1.531.148 1.079.699 1.23.488.135 1.129-.165 1.23-.698"/></g></svg>