<svg height="12" viewBox="0 0 13 12" width="13" xmlns="http://www.w3.org/2000/svg"><g fill="none" fill-rule="evenodd" transform="translate(.55 .899822)"><g stroke="#000" stroke-linecap="round" stroke-linejoin="round" transform="translate(6.860078 7.1901)"><path d="m0 1.5h4"/><path d="m3.1798438 0 1 1.55267816-1 1.44732184"/></g><path d="m2.75000032 2.40017856h6.69999998c.5522847 0 1 .44771525 1 1v.2c0 .55228475-.4477153 1-1 1h-6.69999998z" stroke="#000" stroke-linecap="square" stroke-linejoin="round" transform="matrix(.70710678 -.70710678 .70710678 .70710678 -.541905 5.692083)"/><path d="m3.11310703 5.68771866c-.68349521-.34174757-1.36699042-.17087379-2.05048562.51262136-1.02524282 1.02524272-.55 2.83721683-1.06262141 3.34983819 0 0 2.60048562.75113269 3.62572843-.27411.68349521-.68349518.94158573-1.50879183.77427157-2.47589" fill="#000" fill-rule="nonzero"/></g></svg>