<svg height="11" viewBox="0 0 11 11" width="11" xmlns="http://www.w3.org/2000/svg"><g fill="none" fill-rule="evenodd"><path d="m3.3 3.3h6.7c.5522847 0 1 .44771525 1 1v.2c0 .55228475-.4477153 1-1 1h-6.7z" stroke="#000" stroke-linecap="square" stroke-linejoin="round" transform="matrix(.70710678 -.70710678 .70710678 .70710678 -1.017083 6.344544)"/><path d="m3.66310703 6.58754045c-.68349521-.34174757-1.36699042-.17087378-2.05048562.51262136-1.02524282 1.02524272-.55 2.83721683-1.06262141 3.34983819 0 0 2.60048562.7511327 3.62572843-.27411.68349521-.68349518.94158573-1.50879183.77427157-2.47589" fill="#000"/><path d="m3 10.1c-.38138877.1906944 3-1.1 4-.6.66666667.33333333 1.66666667 0 3-1" stroke="#000" stroke-linecap="round" stroke-linejoin="round"/></g></svg>