<svg height="14" viewBox="0 0 14 14" width="14" xmlns="http://www.w3.org/2000/svg"><g fill="none" fill-rule="evenodd"><g transform="translate(1 1)"><g stroke="#000" stroke-linecap="square" stroke-linejoin="round"><rect height="12" rx="2" width="12"/><path d="m.5 3.5h11"/></g><path d="m2 0h8c1.1045695 0 2 .8954305 2 2v2h-12v-2c0-1.1045695.8954305-2 2-2z" fill="#000"/></g><g fill="#000"><path d="m5.4 6h1v1h-1z"/><path d="m3 8h1v1h-1z"/><path d="m3 10h1v1h-1z"/><path d="m5.4 8h1v1h-1z"/><path d="m5.4 10h1v1h-1z"/><path d="m7.7 10h1v1h-1z"/><path d="m7.7 8h1v1h-1z"/><path d="m10 8h1v1h-1z"/><path d="m7.7 6h1v1h-1z"/><path d="m10 6h1v1h-1z"/></g></g></svg>