<svg height="11" viewBox="0 0 11 11" width="11" xmlns="http://www.w3.org/2000/svg"><path d="m9.27343609 3.77840519c-.25023833-.00015958-.49739119.05536416-.72362141.16256404l-.05614304.02876133-.04740967.02375936-2.03362567 1.03790887c-.04733766-.09531452-.10921449-.1826476-.18340059-.25885197l1.85521556-1.84197561c.45218822-.45515974.61331561-1.12511396.41770672-1.73678968-.1956089-.61167571-.71528392-1.06291226-1.34720581-1.16978586-.63192189-.10687359-1.27054852.14846554-1.65557599.66194131-.39084475-.49856054-1.02386969-.740851-1.64678107-.63030586-.62291137.11054513-1.13445262.55595633-1.33074763 1.15871378-.196295.60275745-.04543528 1.2648807.39245362 1.72247877l1.85396794 1.83572315c-.07340828.07657149-.1348224.1638452-.18215298.25885197l-2.03237804-1.03415739-.0486573-.02500985-.05489541-.02751084c-.22631125-.10696339-.47341051-.16247509-.72362141-.16256404-.79576624-.00565752-1.49078007.53833052-1.67818219 1.31351493-.18740213.77518442.18209123 1.57770399.89217964 1.93776585-.34177529.54611123-.34979753 1.23802616-.02077632 1.79195059.3290212.55392443.93971587.87664013 1.58160293.83578278.64188706-.04085734 1.20694531-.43841197 1.4634118-1.02960382l1.08168923-2.21087093c.03618107.0175069.07111452.03251281.10854321.04626823v2.4697229c0 1.106686.33186775 1.7932064.38925841 1.8919953h.00623812c.05976564.1053056.17107245.1706223.2919438.1713175.18948689 0 .34309636-.1539628.34309636-.3438855-.00126517-.0599118-.01896267-.1183181-.05115255-.1688165-.09481936-.1638145-.2969343-.60148691-.2969343-1.54685932v-2.47472487c.03719976-.01240871.07347227-.02745255.10854321-.04501774l1.08168923 2.21087093c.28638332.54281096.83993411.89125389 1.45213514.9140737s1.1900444-.28345037 1.5158621-.80344151c.32581767-.51999115.35011027-1.17470424.06372687-1.71751519.7100884-.36006186 1.0795818-1.16258143.8921797-1.93776584-.1874021-.77518442-.882416-1.31917245-1.67818221-1.31351494z"/></svg>