<svg height="22" viewBox="0 0 32 22" width="32" xmlns="http://www.w3.org/2000/svg"><g fill="none" fill-rule="evenodd" transform="translate(1 1)"><path d="m0 14h21.7952209l9.2047791 7h-22.08074159z"/><path d="m20.8020903 13c.5484909 0 1.3427288.2658606 1.793892.6089587l7.6032563 5.7820826c.4422483.3363186.3596902.6089587-.2053794.6089587h-20.06846001c-.55567621 0-1.35578628-.2744083-1.79766546-.6212033l-7.33620905-5.7575934c-.43714701-.3430811-.33630052-.6212033.20160594-.6212033z" stroke="#222" stroke-linecap="round" stroke-linejoin="round"/><path d="m19.9970378 15c.5539207 0 1.3671409.2768555 1.8015414.6070948l3.1476539 2.3929052h-14.9462331l-4.28607735-3z" stroke="#222" stroke-linecap="round"/><path d="m0 0h22v13h-22z"/><path d="m0 .99850233c0-.55145761.43945834-.99850233 1.00246167-.99850233h19.99507663c.5536443 0 1.0024617.44748943 1.0024617.99850233v11.00299537c0 .5514576-.4394583.9985023-1.0024617.9985023h-19.99507663c-.55364429 0-1.00246167-.4474894-1.00246167-.9985023z" stroke="#222" stroke-linecap="round" stroke-linejoin="round"/><path d="m2 1.76315789h18v9.47368421h-18z" stroke="#222" stroke-linejoin="round"/><path d="m12.114127 15.056018 5.750099 4.695726" fill="#fff"/><path d="m11.270047 15 4.149833 3" stroke="#222" stroke-linejoin="bevel"/><path d="m16 15 4.149833 3" stroke="#222" stroke-linejoin="bevel"/><path d="m6 15.8703704h16z" fill="#fff"/><path d="m8 16.615559 15.026883-.115559" stroke="#222" stroke-linejoin="round"/><path d="m8 17.8703704h16z" fill="#fff"/><path d="m4 5.12963h2" stroke="#222" stroke-linecap="round" stroke-linejoin="round"/><path d="m3 5h4z" fill="#fff"/><path d="m4 6.98963h4" stroke="#222" stroke-linecap="round" stroke-linejoin="round"/><path d="m11 5h4z" fill="#fff"/><path d="m14 7.12963h4" stroke="#222" stroke-linecap="round" stroke-linejoin="round"/><path d="m8 5h2z" fill="#fff"/><g stroke="#222" stroke-linecap="round" stroke-linejoin="round"><path d="m10 7.12963h2"/><path d="m8 5.12963h1"/><path d="m11 5.12963h4"/></g></g></svg>