<svg height="9" viewBox="0 0 26 9" width="26" xmlns="http://www.w3.org/2000/svg"><g fill="none" fill-rule="evenodd" stroke="#000" stroke-linecap="square" stroke-linejoin="round"><g transform="translate(1 1)"><path d="m0 6.94511318c1.41814359-.30826871 2.05862553-1.86681972 2.05862553-3.44511318s-.64048194-3.13684447-2.05862553-3.44511317c.19557431-.03606418.39695079-.05488683.60259467-.05488683 1.87633515 0 3.39740533 1.56700338 3.39740533 3.5s-1.52107018 3.5-3.39740533 3.5c-.20564388 0-.40702036-.01882265-.60259467-.05488682z" fill="#000" fill-rule="nonzero" transform="matrix(-1 0 0 -1 4 7)"/><circle cx="3.5" cy="3.5" r="3.5"/></g><g transform="translate(18 1)"><path d="m0 6.94511318c1.41814359-.30826871 2.05862553-1.86681972 2.05862553-3.44511318s-.64048194-3.13684447-2.05862553-3.44511317c.19557431-.03606418.39695079-.05488683.60259467-.05488683 1.87633515 0 3.39740533 1.56700338 3.39740533 3.5s-1.52107018 3.5-3.39740533 3.5c-.20564388 0-.40702036-.01882265-.60259467-.05488682z" fill="#000" fill-rule="nonzero" transform="matrix(-1 0 0 -1 4 7)"/><circle cx="3.5" cy="3.5" r="3.5"/></g><path d="m8.5 4.5h10"/></g></svg>