<svg height="13" viewBox="0 0 9 13" width="9" xmlns="http://www.w3.org/2000/svg"><path d="m4.12570982.849099c-.6331772.18838167-1.1250463.65802385-1.43665607 1.27720336-.56609885-.24586848-1.09395774-.37622796-1.64933595-.26159649-.07430734.01503139-.14370052.05168496-.19664418.10386961-.72765849.72847436-.75839788 1.91508319-.20867096 2.98911595.52104372 1.01799949 1.58543888 1.96923831 3.17427887 2.43899864-.1466622.8006821-.21016808 1.1633348-.3701243 1.84619067-.21251176-.35645564-.51283472-.50552511-.81771985-.78057761-.60677003-.48854189-2.11233023-.68653254-2.4001895-.46266543.21619228.59472901.4542958 1.297152.96629279 1.92956945.50005136.61766225.97201752.76195145 1.91645533.89702845-.22844527.5578407-.67784974 1.3933341-1.27887825 2.0062614h.91908511c.5533248-.5571802.91436899-1.1383147 1.15336552-1.9158045 1.1073553-.0549661 2.06482735-.3010008 2.58344399-.7809482.51861663-.47994735.67294408-.66619041.83719887-1.15609348.07197985-.21468565.19453101-.51734769.11882311-.89147078-.40876799-.12039393-1.20108215-.03311693-1.51637334.07213566-.52679538.14316874-1.23678747.42339296-1.56560976.71422393.04855971-.20557553.18217327-1.28594789.25682977-1.46246494 1.62157092-.46340955 2.70293288-1.42372038 3.23046847-2.45438326.54972692-1.07403276.51897459-2.26064159-.20867096-2.98911595-.05295659-.05218465-.12233684-.08883822-.19664418-.10386961-.5525849-.11582531-1.1231065-.01522093-1.64532703.25390172-.31179082-.61605828-.80561265-1.08176446-1.43665607-1.26950859-.08050177-.02916063-.15392974-.01381909-.22874143 0z"/></svg>