<svg height="12" viewBox="0 0 14 12" width="14" xmlns="http://www.w3.org/2000/svg"><g fill="none" fill-rule="evenodd" stroke="#000" stroke-linejoin="round" transform="translate(1.655593 1.035056)"><path d="m4.34440661 9.96494419c0-2.0847669.33683088-4.16953379 1.01049265-6.25430069" stroke-linecap="round"/><g fill="#000" stroke-linecap="square"><path d="m2.71959476 3.48685646c.76706215 0 1.6153397-.40152508 2.54483263-1.20457526-.91502357-.79525351-1.75606644-1.19288027-2.52312859-1.19288027s-1.59268596.39762676-2.47687141 1.19288027c.8697161.80305018 1.68810522 1.20457526 2.45516737 1.20457526z" transform="matrix(-.8660254 -.5 .5 -.8660254 4.014427 5.65192)"/><path d="m7.90053849 3.48685646c.76706216 0 1.6153397-.40152508 2.54483261-1.20457526-.91502355-.79525351-1.75606642-1.19288027-2.52312857-1.19288027s-1.59268595.39762676-2.47687141 1.19288027c.8697161.80305018 1.68810522 1.20457526 2.45516737 1.20457526z" transform="matrix(.8660254 -.5 -.5 -.8660254 2.208542 8.242392)"/></g></g></svg>