<svg height="12" viewBox="0 0 16 12" width="16" xmlns="http://www.w3.org/2000/svg"><g fill="none" fill-rule="evenodd" stroke="#000" stroke-linecap="square" stroke-linejoin="round" transform="translate(1 1)"><path d="m10.1990742 10h-8.9990742c-.6627417 0-1.2-.44771525-1.2-1v-8c0-.55228475.5372583-1 1.2-1h1.93506421l1.38185942 1.09489234h6.28307637c.6627417 0 1.2.44771525 1.2 1v1.90510766"/><path d="m2.85663034 4h9.69559236c.5522848 0 1 .44771525 1 1 0 .12095125-.0219423.2408992-.0647612.3540175l-1.5141267 4c-.1471697.3887911-.5195256.6459825-.9352388.6459825h-9.61682287c-.55228475 0-1-.44771525-1-1 0-.1151274.01988039-.2293902.05876491-.33775214l1.43535721-4c.14255237-.39725965.51917299-.66224786.94123509-.66224786z"/></g></svg>