<svg height="12" viewBox="0 0 19 12" width="19" xmlns="http://www.w3.org/2000/svg"><g fill="none" fill-rule="evenodd" stroke="#000" transform="translate(.5 1)"><g fill="#000"><circle cx="11.574979" cy="2.749984" r="2.749984" stroke-linecap="square" stroke-linejoin="round"/><circle cx="3.574979" cy="2.749984" r="2.749984" stroke-linecap="square" stroke-linejoin="round"/><path d="m11.574979 5.99996772c.9164451 0 1.6446702.40627324 2.1577491 1.03775493.6042755.74372372.9172299 1.78589486.9172299 2.86221924 0 .20667591-.011625.40694871-.0347988.60000411h-6.08036033c-.02317381-.1930554-.03479887-.3933282-.03479887-.60000411 0-1.07632438.31295439-2.11849552.91722992-2.86221924.51307887-.63148169 1.24130398-1.03775493 2.15774908-1.03775493z"/><path d="m3.57497902 5.99996772c.91644511 0 1.64467022.40627324 2.15774909 1.03775493.60427553.74372372.91722992 1.78589486.91722992 2.86221924 0 .20667591-.01162506.40694871-.03479887.60000411h-6.08036029c-.02317381-.1930554-.03479887-.3933282-.03479887-.60000411 0-1.07632438.31295439-2.11849552.91722992-2.86221924.51307887-.63148169 1.24130398-1.03775493 2.1577491-1.03775493z"/></g><path d="m12.9428904 6.69794366c1.1047139-.0653216 2.0237354-.28131466 2.7570644-.64797917.733329-.36666452 1.5000108-1.21665268 2.3000452-2.54996449" stroke-linecap="round" stroke-linejoin="round"/></g></svg>