<svg height="12" viewBox="0 0 12 12" width="12" xmlns="http://www.w3.org/2000/svg"><g fill="none" fill-rule="evenodd" stroke="#000" stroke-linecap="round" stroke-linejoin="round" transform="matrix(-1 0 0 1 11 1)"><path d="m3.32914689 9.75289602h.7565577c.24839204-.0147988.38278051-.02457717.4031654-.0293351 1.16154089-.27110952 1.48432098-.66403845 2.18198312-1.22356092.66226899-.5311373.70308671-.69508684 1.11584772-1.12911838.30177194-.31732294.90263813-.969681 1.80259859-1.95707418.09393236-.52119243.01353812-.89615922-.24118271-1.12490037-.25472083-.22874114-.57694888-.29225148-.96668414-.19053102l-1.29419358 1.09300041"/><path d="m5.30524166 3.02854316v-1.41982357c0-.48824872.39580379-.88405251.88405251-.88405251.00231541 0 .00463082.0000091.00694616.00002729.49321336.00387539.89099866.40479853.89099866.89802712v3.4838213"/><path d="m3.48847922 4.0467801c0-1.04613296 0-2.09226592 0-3.13839888 0-.50168509.40669612-.90838122.90838122-.90838122s.90838122.40669613.90838122.90838122v3.09161878"/><path d="m1.66457345 3.33192247c0-.57313929 0-1.14627858 0-1.71941787 0-.48645753.39435174-.88080928.88080927-.88080928.49078883 0 .892832.3898351.90796099.88039069.01171184.37975477.02342367.75950954.03513551 1.13926431"/><path d="m3.32914689 9.75289602c-.50881236 0-1.44855803-.51409483-1.82914689-.75289602s-.87764481-.70491382-1.12324045-1.1652062c-.09169685-.17185714-.17142974-.34692425-.23919865-.52520132-.09094833-.2392401-.1375609-.49304454-.1375609-.74898872v-3.97542101c0-.45965927.37262746-.83228673.83228672-.83228673.45965927 0 .83228673.37262746.83228673.83228673v1.46622694"/></g></svg>