<svg height="10" viewBox="0 0 20 10" width="20" xmlns="http://www.w3.org/2000/svg"><g fill="none" fill-rule="evenodd"><path d="m6.14390432 9.77251131c-4.09593621-2.64186252-6.14390432-4.85769962-6.14390432-6.64751131 0-1.875 1.3-3.125 3.25-3.125 1.3 0 2.38333333.625 3.25 1.875.86666667-1.25 1.95-1.875 3.25-1.875 1.95 0 3.25 1.25 3.25 3.125 0 1.84094917-2.1666667 4.13261583-6.5 6.875z" fill="#000"/><path d="m9.6 2c.795 0 1.438.629 1.47 1.414h1c-.032-1.336-1.124-2.414-2.468-2.414z" fill="#fff"/><g stroke="#000" stroke-linecap="round" stroke-linejoin="round"><path d="m15 1h4"/><path d="m16 3h3"/><path d="m15 5h4"/><path d="m14 7h5"/><path d="m12 9h7"/></g></g></svg>