<svg height="10" viewBox="0 0 13 10" width="13" xmlns="http://www.w3.org/2000/svg"><path d="m9.75.5c-1.1705161 0-2.13419419.58441911-3.04923247 1.51203213-.14872723.15077108-.28837121.30270328-.41788699.45646169-.09718433-.16939586-.20939107-.33789486-.3364716-.50547359-.73158382-.96472592-1.62552316-1.46302023-2.69640894-1.46302023-.82771347 0-1.52459669.25335024-2.00969564.71979153-.47827302.45987791-.74030436 1.12028466-.74030436 1.90520847 0 1.67093598 2.0013612 3.67198261 6.00210824 6.28051274 3.89474796-2.49651201 5.99789176-4.56362265 5.99789176-6.28051274 0-.78492381-.2620313-1.44533056-.7403044-1.90520847-.4850989-.46644129-1.1819821-.71979153-2.0096956-.71979153z" fill="none" stroke="#000"/></svg>