<svg height="12" viewBox="0 0 15 12" width="15" xmlns="http://www.w3.org/2000/svg"><g fill="none" fill-rule="evenodd" stroke="#000" stroke-linejoin="round" transform="translate(1 1)"><path d="m4.2.26666667 2.5 3.33333333c.08284271.11045695.06045695.26715729-.05.35-.04327404.03245553-.09590745.05-.15.05h-5c-.13807119 0-.25-.11192881-.25-.25 0-.05409255.01754447-.10672596.05-.15l2.5-3.33333333c.08284271-.11045695.23954305-.13284272.35-.05.01895142.01421356.03578644.03104858.05.05z" stroke-linecap="square"/><path d="m5 4 2.48075286 3.60836779c.07822131.11377645.04939817.26942138-.06437828.34764269-.04167459.02865128-.09105881.04398952-.1416322.04398952h-6.54948476c-.13807118 0-.25-.11192881-.25-.25 0-.05057339.01533824-.09995761.04398952-.14163221l2.48075286-3.60836779z" stroke-linecap="square"/><path d="m4 8v2" stroke-linecap="round"/><path d="m11.8564654 0c.4065248 0 .793215.08492214 1.1432983.23799411-1.009422.44027493-1.7145913 1.44702257-1.7145913 2.61847133 0 1.17144877.7051693 2.17819641 1.7141781 2.61891313-.3496701.15263018-.7363603.23755231-1.1428851.23755231-1.5775823 0-2.8564654-1.27888314-2.8564654-2.85646544s1.2788831-2.85646544 2.8564654-2.85646544z" stroke-linecap="square"/></g></svg>