<?xml version="1.0" encoding="UTF-8"?>
<svg width="12px" height="9px" viewBox="0 0 12 9" version="1.1" xmlns="http://www.w3.org/2000/svg" xmlns:xlink="http://www.w3.org/1999/xlink">
    <title>Group 79</title>
    <g id="kinopio" stroke="none" stroke-width="1" fill="none" fill-rule="evenodd">
        <g id="Group-79" transform="translate(0.000000, 0.500000)" stroke="#000000">
            <path d="M7.73400827,0.5 C8.37071215,0.5 8.9693722,0.803159468 9.34617488,1.31639584 L9.34617488,1.31639584 L11.5,4.25008354 L11.5,6.5 C11.5,6.91421356 11.3321068,7.28921356 11.0606602,7.56066017 C10.7892136,7.83210678 10.4142136,8 10,8 L10,8 L2,8 C1.58578644,8 1.21078644,7.83210678 0.939339828,7.56066017 C0.667893219,7.28921356 0.5,6.91421356 0.5,6.5 L0.5,6.5 L0.5,4.25434696 L2.65402431,1.31722461 C3.03077735,0.803502569 3.62973298,0.5 4.26679906,0.5 L4.26679906,0.5 Z" id="Rectangle-Copy-118"></path>
            <path d="M1.5,4 L4,4 L4,4.40066689 C4,4.95295164 4.44771525,5.40066689 5,5.40066689 L7,5.40066689 C7.55228475,5.40066689 8,4.95295164 8,4.40066689 L8,4 L8,4 L10.5,4" id="Line-55" stroke-linecap="square" stroke-linejoin="round"></path>
        </g>
    </g>
</svg>