<svg height="9" viewBox="0 0 12 9" width="12" xmlns="http://www.w3.org/2000/svg"><g fill="none" fill-rule="evenodd" stroke="#000" transform="translate(0 .5)"><path d="m7.73400827.5c.63670388 0 1.23536393.30315947 1.61216661.81639584l2.15382512 2.9336877v2.24991646c0 .41421356-.1678932.78921356-.4393398 1.06066017s-.6464466.43933983-1.0606602.43933983h-8c-.41421356 0-.78921356-.16789322-1.06066017-.43933983s-.43933983-.64644661-.43933983-1.06066017v-2.24565304l2.15402431-2.93712235c.37675304-.51372204.97570867-.81722461 1.61277475-.81722461z"/><path d="m1.5 4h2.5v.40066689c0 .55228475.44771525 1 1 1h2c.55228475 0 1-.44771525 1-1v-.40066689h2.5" stroke-linecap="square" stroke-linejoin="round"/></g></svg>