<svg height="9" viewBox="0 0 18 9" width="18" xmlns="http://www.w3.org/2000/svg"><path d="m3.568 3.788c0 .985-.799 1.784-1.784 1.784s-1.784-.799-1.784-1.784.799-1.784 1.784-1.784 1.784.799 1.784 1.784zm3.119-2.005c0 .986-.799 1.784-1.784 1.784s-1.784-.798-1.784-1.784c0-.985.799-1.783 1.784-1.783s1.784.798 1.784 1.783zm0 3.789c0 .985-.799 1.783-1.784 1.783s-1.784-.798-1.784-1.783c0-.986.799-1.784 1.784-1.784s1.784.798 1.784 1.784zm-1.427-1.911h11zm8.5.5v3zm-2.5 1.5h5zm4.5.5v1zm-4 0v1z" fill="none" stroke="#222" transform="translate(1 1)"/></svg>