<svg height="9" viewBox="0 0 13 9" width="13" xmlns="http://www.w3.org/2000/svg"><g fill-rule="evenodd"><path d="m4.21437323 4.35728872 2.55845241 4.26408734c.07103704.11839507.03264577.27196013-.0857493.34299717-.03885385.02331231-.08331295.03562677-.12862393.03562677h-5.11690482c-.13807118 0-.25-.11192881-.25-.25 0-.04531099.01231446-.08977009.03562677-.12862394l2.55845241-4.26408734c.07103704-.11839507.2246021-.15678633.34299717-.08574929.0351874.02111244.06463685.05056189.08574929.08574929z"/><path d="m9.2236068 1.4472136 3.5954915 7.190983c.0617473.12349463.0116912.27366289-.1118034.3354102-.0347139.01735693-.0729921.0263932-.1118034.0263932h-7.190983c-.13807119 0-.25-.11192881-.25-.25 0-.03881127.00903627-.07708954.0263932-.1118034l3.5954915-7.190983c.06174731-.12349463.21191557-.17355072.3354102-.1118034.04838185.02419092.08761247.06342154.1118034.1118034z"/><path d="m1.78517236 0c.25411185 0 .49582294.0488462.71464498.13688944-.63092429.25301668-1.07167945.83188421-1.07167945 1.50545956s.44075516 1.25244288 1.07140526 1.50581251c-.21854785.08769029-.46025894.13653649-.71437079.13653649-.98592347 0-1.78517236-.73530469-1.78517236-1.642349s.79924889-1.642349 1.78517236-1.642349z"/></g></svg>