<svg height="14" viewBox="0 0 13 14" width="13" xmlns="http://www.w3.org/2000/svg"><g fill="none" fill-rule="evenodd" stroke="#000" stroke-linecap="round" stroke-linejoin="round" transform="translate(1 1)"><path d="m3.99497627 11.7034752h1.28502373c.80346258-.1186453 1.63722519-.5287155 2.50128784-1.2302106.55236586-.448442.64615115-1.31032471 1.2671486-1.90379388.3815763-.36466134 1.09307236-.97311111 2.13448826-1.82534932.1127189-.62543092.0162458-1.07539106-.2894192-1.34988044-.305665-.27448937-.6923387-.35070178-1.160021-.22863722l-1.22879771 1.06404801c-.5953068 0-1.19610517.17148988-1.80239512.51446965s-1.01811693.75642944-1.23548093 1.240349"/><path d="m6.36629 3.71610541v-1.90347265c0-.52133166.42262281-.94395447.94395446-.94395447.0024723 0 .0049446.00000971.00741682.00002914l.25048786.00196819c.51842153.00407345.93653765.4254878.93653765.94392533v4.3132504"/><path d="m4.18617506 4.85613613c0-1.26586871 0-2.53173742 0-3.79760612 0-.58460998.47392003-1.05853001 1.05853001-1.05853001h.06305492c.58460998 0 1.05853001.47392003 1.05853001 1.05853001v2.5883063"/><path d="m1.99748814 3.99830697c0-.68776715 0-1.3755343 0-2.06330145 0-.58374904.47322209-1.05697113 1.05697113-1.05697113h.03058346c.57190542 0 1.04039748.45426627 1.05802696 1.0258999.01436846.46589536.02873691.93179073.04310537 1.39768609"/><path d="m3.99497627 11.7034752c-.61057483 0-1.94616461-.2597441-2.40287125-.5463056-.45670663-.2865614-.96879242-.7816526-1.26350718-1.33400347-.19206346-.35996302-.30104485-.86589333-.32694416-1.51779091-.00110723-.028069-.00166118-.05615718-.00165368-.08424801v-5.11890791c0-.55159112.44715295-.99874407.99874407-.99874407s.99874407.44715295.99874407.99874407v1.97511965"/></g></svg>