<svg height="12" viewBox="0 0 13 12" width="13" xmlns="http://www.w3.org/2000/svg"><g fill="none" fill-rule="evenodd" stroke="#000" transform="translate(.5)"><g stroke-linecap="round" stroke-linejoin="round"><path d="m6 1.5v-1"/><path d="m1.646447 2.353553.707106-.707106" transform="matrix(-1 0 0 1 4 0)"/><path d="m9.646447 2.353553.707106-.707106"/><path d="m.5 1.5v-1" transform="matrix(0 1 -1 0 12 5.5)"/><path d="m.5 1.5v-1" transform="matrix(0 1 -1 0 2 5.5)"/><path d="m6 11.5v-1" transform="matrix(1 0 0 -1 0 22)"/><path d="m1.646447 10.353553.707106-.707106" transform="matrix(-1 0 0 -1 4 20)"/><path d="m9.646447 10.353553.707106-.707106" transform="matrix(1 0 0 -1 0 20)"/></g><circle cx="6" cy="6" r="3"/></g></svg>