<svg height="12" viewBox="0 0 12 12" width="12" xmlns="http://www.w3.org/2000/svg"><g fill="none" fill-rule="evenodd"><path d="m8.8 12h-6.6c-1.21502645 0-2.2-.8954305-2.2-2v-8c0-1.1045695.98497355-2 2.2-2h6.6c1.2150264 0 2.2.8954305 2.2 2v5h-1v3h1c0 1.1045695-.9849736 2-2.2 2zm.075-11h-6.75c-.57694032 0-1.05244556.38604019-1.1174313.88337887l-.0075687.11662113v8c0 .5128358.43429521.9355072.99380123.9932723l.13119877.0067277h6.75c.57694032 0 1.05244556-.3860402 1.1174313-.8833789l.0075687-.1166211v-8c0-.51283584-.43429521-.93550716-.99380123-.99327227z" fill="#000" fill-rule="nonzero"/><g stroke="#000"><path d="m9 .5c.41421356 0 .78921356.16789322 1.0606602.43933983.2714466.27144661.4393398.64644661.4393398 1.06066017v.5h-10v-.5c0-.41421356.16789322-.78921356.43933983-1.06066017s.64644661-.43933983 1.06066017-.43933983z"/><path d="m2.666667 5.5h6" stroke-linecap="round" stroke-linejoin="round"/><path d="m5.5 8.5h6" stroke-linecap="round" stroke-linejoin="round"/></g></g></svg>