<svg height="13" viewBox="0 0 12 13" width="12" xmlns="http://www.w3.org/2000/svg"><g fill="none" fill-rule="evenodd" stroke="#000"><path d="m1.5.5c.40850956 0 .75934157.11093655 1.04789137.34510605 1.00038431-.16809045 1.4313607-.34510605 1.95210863-.34510605.2876184 0 .52880838.11765101.6970656.32797252.20218461.25273077.3029344.61771283.3029344 1.04702748 0 .95629318-.88641439 2.09879188-2.49613008 3.46940897-1.67772949-1.46184687-2.50386992-2.55073577-2.50386992-3.46940897 0-.42931465.10074979-.79429671.30293441-1.04702748.16825721-.21032151.40944719-.32797252.69706559-.32797252z" transform="translate(3)"/><path d="m1.5.5c.40850956 0 .75934157.11093655 1.04789137.34510605 1.00038431-.16809045 1.4313607-.34510605 1.95210863-.34510605.2876184 0 .52880838.11765101.6970656.32797252.20218461.25273077.3029344.61771283.3029344 1.04702748 0 .95629318-.88641439 2.09879188-2.49613008 3.46940897-1.67772949-1.46184687-2.50386992-2.55073577-2.50386992-3.46940897 0-.42931465.10074979-.79429671.30293441-1.04702748.16825721-.21032151.40944719-.32797252.69706559-.32797252z" transform="matrix(-0 1 -1 -0 12 4)"/><path d="m1.5.5c.40850956 0 .75934157.11093655 1.04789137.34510605 1.00038431-.16809045 1.4313607-.34510605 1.95210863-.34510605.2876184 0 .52880838.11765101.6970656.32797252.20218461.25273077.3029344.61771283.3029344 1.04702748 0 .95629318-.88641439 2.09879188-2.49613008 3.46940897-1.67772949-1.46184687-2.50386992-2.55073577-2.50386992-3.46940897 0-.42931465.10074979-.79429671.30293441-1.04702748.16825721-.21032151.40944719-.32797252.69706559-.32797252z" transform="matrix(0 1 1 -0 -0 4)"/><path d="m6 6.94277051v2.5c.38271262 1.66666669 1.38271262 2.49999999 3 2.49999999.88080811 0 .99039722 0 .32876734 0"/></g></svg>