<svg height="11" viewBox="0 0 11 11" width="11" xmlns="http://www.w3.org/2000/svg"><g fill-rule="evenodd" transform="translate(-1)"><path d="m8.93959492 6.58245207c-1.10569144 0-2.10974996.46182439-3.02339821 1.35711742.91364825.89534389 1.91770677 1.35716829 3.02339821 1.35716829 1.10561608 0 2.10961298-.4617614 3.02321128-1.35693423-.9133243-.89546408-1.9174444-1.35735148-3.02321128-1.35735148z" stroke="#000" transform="matrix(.70710678 -.70710678 .70710678 .70710678 -2.995795 8.646702)"/><path d="m3.93959492 6.58245207c-1.10561603 0-2.10961299.4617614-3.02321126 1.35693423.91332433.89546408 1.9174444 1.35735148 3.02321126 1.35735148 1.10561603 0 2.109613-.4617614 3.02321127-1.35693423-.91332433-.89546408-1.9174444-1.35735148-3.02321127-1.35735148z" stroke="#000" transform="matrix(-.70710678 -.70710678 -.70710678 .70710678 12.339451 5.111168)"/><path d="m6.50001074 5.6c2.20913222 0 3.49998926-1.54289563 3.49998926-3.44615385 0-1.10824993 0-2.15384615-.5-2.15384615-.33333333 0-.83333333.43076923-1.5 1.29230769-.66666667-.86153846-1.16666309-1.29230769-1.49998926-1.29230769-.33376898 0-.83376744.43076923-1.4999954 1.29230769-.66666462-.86153846-1.16666308-1.29230769-1.4999954-1.29230769-.50001994 0-.50001994 1.4190517-.50001994 2.15384615 0 1.90325822 1.29087852 3.44615385 3.50001074 3.44615385z"/></g></svg>