<svg height="15" viewBox="0 0 15 15" width="15" xmlns="http://www.w3.org/2000/svg"><path d="m10.6363636 0c1.3054004 0 2.3636364 1.05823605 2.3636364 2.36363636 0 .87473187-.4751656 1.63848286-1.1814614 2.04721748v.17829232c.7062958.40873462 1.1814614 1.17248561 1.1814614 2.04721748 0 .8426461-.4409462 1.58230371-1.1046841 2.00081852.6637379.41687776 1.1046841 1.15653537 1.1046841 1.99918144 0 1.3054004-1.058236 2.3636364-2.3636364 2.3636364-.87473183 0-1.63848282-.4751656-2.04721744-1.1814614h-.17829232c-.40873462.7062958-1.17248561 1.1814614-2.04721748 1.1814614-.8426461 0-1.58230371-.4409462-2.00081852-1.1046841-.41687776.6637379-1.15653537 1.1046841-1.99918148 1.1046841-1.30540031 0-2.36363636-1.058236-2.36363636-2.3636364 0-.87473183.47516563-1.63848282 1.1814614-2.04721744l-.00068433-.09038155c-.55277578-.43264012-.9080498-1.1060312-.9080498-1.86240097s.35527402-1.42976085.9080498-1.86240098l.00068433-.36310882c-.70629577-.40873462-1.1814614-1.17248561-1.1814614-2.04721748 0-1.30540031 1.05823605-2.36363636 2.36363636-2.36363636.87473187 0 1.63848286.47516563 2.04721748 1.1814614h.17829232c.40873462-.70629577 1.17248561-1.1814614 2.04721748-1.1814614.8426461 0 1.58230371.44094615 2.00081852 1.10468414.41687776-.66373799 1.15653537-1.10468414 1.99918144-1.10468414z" fill="none" stroke="#000" stroke-linecap="square" stroke-linejoin="round" transform="translate(1 1)"/></svg>