<svg xmlns="http://www.w3.org/2000/svg" width="10" height="11" viewBox="0 0 10 11"><g fill="none" fill-rule="evenodd" stroke="#000" stroke-linejoin="round"><path stroke-linecap="square" d="M8.284 9.781c-.483.28-1.163.335-2.04.167.287-.834.672-1.39 1.155-1.669.483-.279 1.148-.328 1.994-.15-.256.823-.625 1.373-1.109 1.652z"/><path stroke-linecap="round" d="M5 7.558c-.162.958-.41 1.696-.748 2.215-.337.518-.713.927-1.128 1.227"/><path stroke-linecap="square" d="M5.144 1c.666 0 1.239.636 1.555 1.431.718-.39 1.463-.574 1.777-.417.55.275.866 1.153-.182 3.07-.947 1.733-2.547 2.218-3.177 2.129-.629.05-2.119-.537-3.151-2.13-1.159-1.786-.732-2.794-.181-3.07.316-.157 1.073.032 1.798.43C3.9 1.642 4.474 1 5.143 1z"/></g></svg>