<svg xmlns="http://www.w3.org/2000/svg" width="10" height="11" viewBox="0 0 10 11"><g fill="none" fill-rule="evenodd"><path fill="#000" d="M1.083 8.98c.537.537 1.629.704 1.834.5.205-.205.037-1.297-.5-1.834-.537-.537-1.643-.69-1.834-.5-.19.19-.037 1.297.5 1.834z"/><path fill="#000" fill-rule="nonzero" d="M5.146.02c-.7.22-1.243.77-1.587 1.494-.626-.288-1.209-.44-1.823-.306a.427.427 0 00-.217.122c-.804.852-.838 2.24-.23 3.498.575 1.191 1.751 2.304 3.507 2.854l.886.018c1.792-.542 2.987-1.666 3.57-2.872.607-1.257.573-2.646-.231-3.498a.427.427 0 00-.217-.122c-.61-.136-1.241-.018-1.818.297C6.64.785 6.096.24 5.399.02c-.09-.034-.17-.016-.253 0z"/><path stroke="#000" stroke-linecap="square" stroke-linejoin="round" d="M5.27 7.7c-.248.852-.543 1.54-.882 2.062-.34.523-.72.936-1.138 1.238"/></g></svg>