<svg height="86" viewBox="0 0 90 86" width="90" xmlns="http://www.w3.org/2000/svg"><path d="m27.343 62.717c.28-.294.376-.719.249-1.106-.126-.386-.454-.672-.854-.745-1.165-.217-2.33-.511-3.488-.887-9.592-3.117-16.28-11.06-18.25-20.268 7.006-6.293 17.085-8.787 26.678-5.67 1.151.373 2.259.817 3.323 1.323.366.176.799.137 1.128-.1.329-.238.501-.637.449-1.039-.141-1.126-.214-2.274-.214-3.438 0-10.086 5.487-18.901 13.636-23.619 8.15 4.718 13.637 13.533 13.637 23.619 0 1.164-.073 2.312-.215 3.438-.052.402.121.801.45 1.038.329.238.762.276 1.127.101 1.064-.506 2.173-.95 3.324-1.323 9.592-3.117 19.672-.623 26.677 5.67-1.969 9.208-8.657 17.151-18.249 20.268-1.189.386-2.386.686-3.583.904-.403.071-.733.359-.859.747-.126.389-.028.815.255 1.109.835.876 1.622 1.817 2.352 2.823 5.929 8.16 6.671 18.517 2.852 27.124-9.367.973-18.987-2.933-24.916-11.093-.711-.979-1.348-1.989-1.911-3.024-.192-.358-.565-.581-.971-.582s-.78.22-.974.577c-.548.994-1.163 1.965-1.847 2.907-5.929 8.16-15.549 12.066-24.916 11.093-3.819-8.608-3.077-18.964 2.851-27.124.703-.968 1.458-1.876 2.259-2.723zm13.679-7.33c.172-.43.596-.705 1.059-.688.408.002.897.021 1.312.036.511.02.942.386 1.044.887.143.711.437 1.379.845 1.971.294.41.269.968-.06 1.35-.259.326-.578.697-.844 1.007-.306.355-.802.479-1.239.311-1.471-.572-3.202-.187-4.29 1.077-1.389 1.614-1.206 4.051.407 5.439s4.05 1.205 5.438-.408c1.088-1.264 1.212-3.034.438-4.409-.229-.403-.18-.906.122-1.257.253-.315.57-.682.839-.995.331-.384.88-.495 1.334-.27.319.164.662.294 1.022.39.36.097.721.156 1.079.18.503.032.92.4 1.014.895.083.405.173.881.249 1.278.087.461-.125.926-.529 1.163-1.365.793-2.143 2.387-1.833 4.026.396 2.091 2.415 3.468 4.506 3.072s3.468-2.415 3.072-4.506c-.31-1.639-1.617-2.839-3.174-3.091-.458-.072-.821-.424-.907-.879-.089-.398-.18-.879-.257-1.288-.095-.503.167-1.005.633-1.216.656-.295 1.244-.727 1.735-1.261.334-.377.883-.477 1.329-.241.375.18.807.408 1.168.599.414.219.646.675.579 1.138-.231 1.561.53 3.164 2.005 3.943 1.882.995 4.217.274 5.211-1.607.995-1.882.275-4.217-1.607-5.212-1.475-.779-3.228-.505-4.396.555-.341.313-.843.377-1.252.161-.417-.206-.923-.473-1.318-.682-.359-.19-.539-.602-.434-.995.21-.782.243-1.571.124-2.322-.086-.498.179-.99.642-1.192.375-.178.822-.374 1.194-.536.43-.187.931-.084 1.252.257 1.076 1.154 2.804 1.558 4.333.891 1.95-.851 2.843-3.126 1.992-5.077s-3.126-2.844-5.077-1.992c-1.528.667-2.407 2.208-2.307 3.782.032.462-.23.894-.655 1.08-.368.175-.817.371-1.198.537-.47.205-1.019.061-1.328-.348-.428-.569-.977-1.048-1.614-1.41-.442-.242-.661-.755-.531-1.242.092-.405.218-.878.324-1.271.121-.453.514-.78.981-.818 1.573-.122 2.966-1.221 3.398-2.832.551-2.056-.671-4.173-2.727-4.723-2.056-.551-4.172.671-4.723 2.726-.432 1.611.225 3.26 1.519 4.163.381.263.555.737.435 1.185-.092.397-.219.869-.326 1.27-.133.494-.586.834-1.097.822-.732-.021-1.447.12-2.109.384-.465.196-1.005.048-1.305-.358-.259-.325-.55-.719-.792-1.047-.278-.377-.29-.889-.028-1.277.885-1.306.894-3.081-.096-4.423-1.264-1.712-3.68-2.076-5.393-.813-1.712 1.264-2.076 3.681-.813 5.393.991 1.342 2.689 1.856 4.202 1.407.443-.133.923.027 1.198.399.252.319.541.712.788 1.045.303.412.286.977-.042 1.37-.488.583-.853 1.282-1.063 2.064-.007.028-.014.055-.021.082-.088.344-.404.58-.759.567-.458-.017-1.078-.04-1.576-.059-.468-.017-.875-.327-1.016-.774-.469-1.507-1.85-2.62-3.517-2.683-2.127-.079-3.918 1.583-3.998 3.71s1.583 3.918 3.709 3.998c1.667.062 3.128-.945 3.72-2.408z" fill-rule="evenodd" transform="translate(-5 -7)"/></svg>