<svg height="11" viewBox="0 0 11 11" width="11" xmlns="http://www.w3.org/2000/svg"><g fill="none" fill-rule="evenodd" transform="translate(0 .294081)"><g fill="#000" transform="matrix(0 1 -1 0 10.705919 0)"><path d="m3.21420101 0h2.06354366l-.02130959 7h-2.98812649c-.50120858 0-.90751842-.40630984-.90751842-.90751843 0-.24832014.10175361-.48579383.28154626-.65707575l1.33209891-1.26904218c.1981146-.18873657.31023751-.45041026.31023751-.72403571v-.33484647c0-.18393675-.05073139-.36431009-.14661379-.52127917l-.71656606-1.17309042c-.26742442-.43780054-.12930727-1.00949833.30849328-1.27692274.14580813-.08906488.31335641-.13618913.48421473-.13618913z"/><path d="m7.93645634 0h2.06354366l-.02130959 7h-2.98812649c-.50120858 0-.90751842-.40630984-.90751842-.90751843 0-.24832014.10175361-.48579383.28154626-.65707575l1.33209891-1.26904218c.1981146-.18873657.31023751-.45041026.31023751-.72403571v-.33484647c0-.18393675-.05073139-.36431009-.14661379-.52127917l-.71656606-1.17309042c-.26742441-.43780054-.12930727-1.00949833.30849328-1.27692274.14580813-.08906488.31335641-.13618913.48421473-.13618913z" transform="matrix(-1 0 0 1 14.722256 0)"/></g><path d="m3.5 5.205919h-3" stroke="#000" stroke-linecap="square" stroke-linejoin="round"/></g></svg>