<?xml version="1.0" encoding="UTF-8"?>
<svg width="494px" height="494px" viewBox="0 0 494 494" version="1.1" xmlns="http://www.w3.org/2000/svg" xmlns:xlink="http://www.w3.org/1999/xlink">
    <title>Group</title>
    <g id="Page-1" stroke="none" stroke-width="1" fill="none" fill-rule="evenodd">
        <g id="Group" transform="translate(10.000000, 10.000000)">
            <polygon id="Path" stroke="#000000" stroke-width="20" points="0 474 0 0 474 0 474 474"></polygon>
            <path d="M347.879,343.562 C358.295,360.889 366.79,366.649 384.166,368.713 L384.166,386.04 L298.441,386.04 L218.139,252.029 L198.076,252.029 L198.076,339.866 C198.076,363.385 203.884,366.649 228.603,368.713 L228.603,386.04 L99.199,386.04 L99.199,368.713 C123.918,366.649 129.726,363.337 129.726,339.866 L129.726,143.6 C129.726,119.697 124.686,116.817 99.199,114.753 L99.199,97.426 L232.395,97.426 C312.696,97.426 354.647,114.321 354.647,173.695 C354.647,218.622 332.808,240.077 288.793,247.469 L347.879,343.562 Z M209.644,125.505 C202.684,125.505 198.076,130.449 198.076,137.888 L198.076,224.046 L231.291,224.046 C265.658,224.046 286.105,211.662 286.105,173.743 C286.105,135.393 265.658,125.505 232.443,125.505 L209.644,125.505 Z" id="Shape" fill="#000000" fill-rule="nonzero"></path>
            <polygon id="Path" fill="#000000" fill-rule="nonzero" points="299.691 107.748 174.799 107.748 174.799 226.976 299.691 226.976"></polygon>
            <path d="M283.999,128.338 C277.183,140.865 287.694,199.904 287.694,199.904 C287.838,203.023 285.727,205.759 282.655,206.431 C282.655,206.431 218.289,206.719 197.025,224.383" id="Path" fill="#F4F9F9" fill-rule="nonzero"></path>
        </g>
    </g>
</svg>