<svg height="12" viewBox="0 0 12 12" width="12" xmlns="http://www.w3.org/2000/svg"><g fill="none" fill-rule="evenodd" stroke="#000" stroke-linejoin="round" transform="translate(1.230852 1)"><path d="m6.77514872 9.06275763c.61364972 0 1.29227176-.33495936 2.03586611-1.00487808-.73201886-.66341462-1.40485316-.99512192-2.01850288-.99512192s-1.27414876.3317073-1.98149712.99512192c.69577287.66991872 1.35048417 1.00487808 1.96413389 1.00487808z" stroke-linecap="square" transform="matrix(-.8660254 .5 .5 .8660254 8.678148 -2.325303)"/><path d="m3.76914849 6.55846184c-.17221309.83471892-.43800706 1.47811305-.79738192 1.93018237-.35937486.45206933-.76024755.8086752-1.20261808 1.06981763" stroke-linecap="round"/><path d="m3.91270173 0c.66616434 0 1.23920116.63637489 1.55563199 1.43123305.71775183-.39020946 1.46278837-.57396166 1.7764445-.41733166.55100966.27515689.86638548 1.15265799-.18118603 3.0693783-.94763196 1.73386294-2.54769672 2.21883114-3.17739776 2.12927911-.6287015.04996036-2.11860227-.53657858-3.15129679-2.12927911-1.15851973-1.78675781-.73219569-2.79422141-.18118603-3.0693783.31676541-.15818267 1.07350616.03079872 1.79877857.42846883.31521477-.79954018.89067708-1.44237022 1.56021155-1.44237022z" stroke-linecap="square"/></g></svg>