<svg height="12" viewBox="0 0 12 12" width="12" xmlns="http://www.w3.org/2000/svg"><path d="m6.05555556 1c.27614237 0 .5.22385763.5.5l.00024413 1.77783741c.35489374.07207294.68521325.21180704.97690673.40515051l1.25643699-1.25780554c.19526215-.19526214.51184464-.19526214.70710679 0l.07856742.07856742c.19526214.19526215.19526214.51184464 0 .70710679l-1.25780554 1.25643699c.19334347.29169348.33307757.62201299.40515051.97690673l1.77783741.00024413c.2761424 0 .5.22385763.5.5v.11111112c0 .27614237-.2238576.5-.5.5l-1.77783741.00024413c-.07207294.35489374-.21180704.68521325-.40515051.97690673l1.25780554 1.25643699c.17356635.17356636.1928515.44299076.05785545.6378589l-.05785545.06924789-.07856742.07856742c-.17356636.17356635-.44299076.1928515-.6378589.05785545l-.06924789-.05785545-1.25643699-1.25780554c-.29169348.19334347-.62201299.33307757-.97690673.40515051l-.00024413 1.77783741c0 .2761424-.22385763.5-.5.5h-.11111112c-.27614237 0-.5-.2238576-.5-.5l-.00024413-1.77783741c-.35489374-.07207294-.68521325-.21180704-.97690673-.40515051l-1.25643699 1.25780554c-.19526215.19526214-.51184464.19526214-.70710679 0l-.07856742-.07856742c-.19526214-.19526215-.19526214-.51184464 0-.70710679l1.25780554-1.25643699c-.19334347-.29169348-.33307757-.62201299-.40515051-.97690673l-1.77783741-.00024413c-.27614237 0-.5-.22385763-.5-.5v-.11111112c0-.27614237.22385763-.5.5-.5l1.77783741-.00024413c.07207294-.35489374.21180704-.68521325.40515051-.97690673l-1.25780554-1.25643699c-.17356635-.17356636-.1928515-.44299076-.05785545-.6378589l.05785545-.06924789.07856742-.07856742c.17356636-.17356635.44299076-.1928515.6378589-.05785545l.06924789.05785545 1.25643699 1.25780554c.29169348-.19334347.62201299-.33307757.97690673-.40515051l.00024413-1.77783741c0-.27614237.22385763-.5.5-.5zm-.05555556 3c-1.1045695 0-2 .8954305-2 2s.8954305 2 2 2 2-.8954305 2-2-.8954305-2-2-2z" fill-rule="evenodd" stroke="#000" stroke-linecap="square" stroke-linejoin="round"/></svg>