<svg height="12" viewBox="0 0 9 12" width="9" xmlns="http://www.w3.org/2000/svg"><g fill="none" fill-rule="evenodd" stroke="#000" stroke-linejoin="round" transform="translate(.75 1)"><path d="m4.1952172.2440215 2.67984379 3.34980474c.08625239.10781548.06877204.26513858-.03904344.35139096-.04432826.03546261-.09940589.0547828-.15617376.0547828h-5.35968758c-.13807119 0-.25-.11192881-.25-.25 0-.05676787.01932019-.1118455.0547828-.15617376l2.67984379-3.34980474c.08625238-.10781548.24357548-.12529582.35139096-.03904344.01441618.01153294.0275105.02462727.03904344.03904344z" fill="#000" stroke-linecap="square"/><path d="m5.06666667 4 2.64158333 3.60215908c.08165028.1113413.05758096.26779189-.05376034.34944217-.04287924.03144478-.09466758.04839875-.14784091.04839875h-7.0132975c-.13807118 0-.25-.11192881-.25-.25 0-.05317333.01695398-.10496167.04839875-.14784092l2.64158333-3.60215908z" fill="#000" stroke-linecap="square"/><path d="m4 7v3" stroke-linecap="round"/></g></svg>