<svg height="11" viewBox="0 0 15 11" width="15" xmlns="http://www.w3.org/2000/svg"><path d="m1.24721313 11.0274316c-.13807119 0-.25-.1119288-.25-.25 0-.0445165.01188665-.0882255.03443174-.1266109l3.56323473-6.06677783c.06992528-.11905506.22312412-.15888262.34217918-.08895734.03675048.02158487.06737248.05220686.08895734.08895734l1.78219701 3.03495713 3.62483997-7.47795725c.0602069-.12425286.2097412-.17617233.333994-.11596537.050595.02451591.0914495.06537036.1159654.11596537l5.1010592 10.52737455c.060207.1242528.0082875.2737871-.1159654.333994-.0339821.0164662-.0712529.0250203-.1090143.0250203z" fill-rule="evenodd" transform="translate(-1 -.027432)"/></svg>