<svg height="10" viewBox="0 0 11 10" width="11" xmlns="http://www.w3.org/2000/svg"><g fill="none" fill-rule="evenodd" stroke="#000" stroke-linejoin="round" transform="translate(1 1)"><path d="m4.5 8.5v-5" stroke-linecap="round"/><g fill="#000" stroke-linecap="square"><path d="m6.57056285 3.81412325c.76706216 0 1.6153397-.40152509 2.54483263-1.20457526-.91502357-.79525351-1.75606644-1.19288027-2.52312859-1.19288027s-1.59268595.39762676-2.47687141 1.19288027c.8697161.80305017 1.68810522 1.20457526 2.45516737 1.20457526z" transform="matrix(.70710678 -.70710678 .70710678 .70710678 .088241 5.443822)"/><path d="m2.57056285 3.81412325c.76706216 0 1.6153397-.40152509 2.54483263-1.20457526-.91502357-.79525351-1.75606644-1.19288027-2.52312859-1.19288027s-1.59268595.39762676-2.4768714 1.19288027c.86971609.80305017 1.68810521 1.20457526 2.45516736 1.20457526z" transform="matrix(-.70710678 -.70710678 -.70710678 .70710678 6.314122 2.615395)"/></g></g></svg>