<?xml version="1.0" encoding="UTF-8"?>
<svg width="23px" height="13px" viewBox="0 0 23 13" version="1.1" xmlns="http://www.w3.org/2000/svg" xmlns:xlink="http://www.w3.org/1999/xlink">
    <!-- Generator: Sketch 57.1 (83088) - https://sketch.com -->
    <title>sunglasses</title>
    <desc>Created with Sketch.</desc>
    <g id="kinopio" stroke="none" stroke-width="1" fill="none" fill-rule="evenodd">
        <g id="sunglasses" transform="translate(0.000000, 1.405948)">
            <path d="M1.90656589,4.90579271 C3.34404393,3.46854582 6.219,0.594052034 6.219,0.594052034 C6.219,0.594052034 7.101,-0.336947966 8.445,0.132052034" id="Path" stroke="#000000"></path>
            <path d="M15.7177737,5.98710531 L20.5126409,0.594052034 C20.5126409,0.594052034 21.3946409,-0.336947966 22.7386409,0.132052034" id="Path-Copy" stroke="#000000"></path>
            <path d="M0,6.76205203 C0,4.55222346 1.79108571,2.76205203 4,2.76205203 C6.20982857,2.76205203 8,4.55222346 8,6.76205203 C8,8.97096632 6.20982857,10.7611377 4,10.7611377 C1.79108571,10.7611377 0,8.97096632 0,6.76205203" id="Fill-2" fill="#000000"></path>
            <path d="M4.002,4 L4,4 L4,5 L4.002,5 C4.795,5 5.438,5.629 5.47,6.414 L6.47,6.414 C6.438,5.078 5.346,4 4.002,4" id="Fill-3" fill="#FFFFFF"></path>
            <path d="M9.157,6.76205203 C9.157,4.55222346 10.9471714,2.76205203 13.157,2.76205203 C15.3659143,2.76205203 17.157,4.55222346 17.157,6.76205203 C17.157,8.97096632 15.3659143,10.7611377 13.157,10.7611377 C10.9471714,10.7611377 9.157,8.97096632 9.157,6.76205203" id="Fill-4" fill="#000000"></path>
            <path d="M13.003,4 L13,4 L13,5 L13.003,5 C13.795,5 14.438,5.629 14.47,6.414 L15.47,6.414 C15.438,5.078 14.347,4 13.003,4" id="Fill-6" fill="#FFFFFF"></path>
            <path d="M7.176,6.15212442 C7.57126592,5.75069457 8.00191573,5.54997964 8.46794944,5.54997964 C8.93398315,5.54997964 9.35379178,5.75069457 9.72737534,6.15212442" id="Path-10" stroke="#000000" stroke-linecap="square" stroke-linejoin="round"></path>
        </g>
    </g>
</svg>