<svg xmlns="http://www.w3.org/2000/svg" width="23" height="13" viewBox="0 0 23 13"><g fill="none" fill-rule="evenodd"><path stroke="#000" d="M1.907 6.312L6.219 2s.882-.931 2.226-.462M15.718 7.393L20.513 2s.882-.931 2.226-.462"/><path fill="#000" d="M0 8.168a4 4 0 118 0 4 4 0 01-8 0"/><path fill="#FFF" d="M4.002 5.406H4v1h.002c.793 0 1.436.629 1.468 1.414h1a2.473 2.473 0 00-2.468-2.414"/><path fill="#000" d="M9.157 8.168a4 4 0 118 0 4 4 0 01-8 0"/><path fill="#FFF" d="M13.003 5.406H13v1h.003c.792 0 1.435.629 1.467 1.414h1a2.472 2.472 0 00-2.467-2.414"/><path stroke="#000" stroke-linecap="square" stroke-linejoin="round" d="M7.176 7.558c.395-.401.826-.602 1.292-.602.466 0 .886.2 1.26.602"/></g></svg>