<svg height="11" viewBox="0 0 11 11" width="11" xmlns="http://www.w3.org/2000/svg"><path d="m5.49758217.00045223c-.00059852.00003533-.00119692.0000728-.00179518.00011244-.002149.00009718-.00429666.00022212-.00644243.00037477-.12378754.00507908-.22515791.10010367-.23821753.22330512-.54822374 2.801774-2.07225024 4.53623075-5.02299849 5.02721842-.10860951.0094833-.19853044.0882938-.22217329.19472206-.00002499 0-.00004997 0-.00007496 0-.00165433.0074068-.00297033.01488512-.00394391.02241171-.00026717.00237014-.00050039.00474397-.00069958.00712078-.00056859.00541172-.00096023.01084056-.0012368.01627785v.012655c.00011274.00362442.00020437.00724813.00037481.01086856.00040641.00602962.00103145.01204251.00187389.01802681.0002013.00179294.00042201.00358365.0006621.00537181.0176964.11436765.11161588.20161463.22697544.21085 2.94858704.49124628 4.47210384 2.22458119 5.02069611 5.02412154.01127535.1198858.10645682.2146744.22638829.2254538.00012907.0000251.00025816.0000501.00038727.000075h.00007496c.00532083.0005821.01065917.0010044.01600676.0013061h.01065743.00640246c.1237436-.0050616.2251473-.099959.23833495-.2230996.54941804-2.80197642 2.07223775-4.53649813 5.02296343-5.02751954.1084493-.00941434.1983221-.0879603.2221733-.19417238.0001575-.00074885.0003116-.00149841.0004622-.00224867.0015086-.00694933.0027198-.01395989.0036304-.02101254.0002683-.00241171.0005016-.0048272.0006996-.00724571.0005685-.00541171.0009602-.01084056.0012366-.01627785 0-.00421381 0-.00842932 0-.0126425-.0001126-.00362442-.0002042-.00724813-.0003747-.01086856-.0004061-.0060338-.0010311-.01205086-.0018738-.0180393-.0002013-.00179295-.0004221-.00358366-.0006621-.00537182-.0012241-.0077619-.0028137-.01546173-.0047635-.02307382-.0262105-.10359134-.1153966-.17904788-.2218984-.1877387-2.94876313-.49178095-4.47117309-2.22513835-5.02100213-5.02491354-.01134962-.12002909-.10679399-.2148334-.22689674-.22537514-.00535195-.00042259-.01071614-.00067257-.01608421-.00074955-.00295163-.00017736-.00590618-.00037478-.00886225-.00037478z"/></svg>