<svg height="14" viewBox="0 0 32 14" width="32" xmlns="http://www.w3.org/2000/svg"><g fill="none" fill-rule="evenodd" stroke="#000" stroke-linejoin="round" transform="translate(1 1)"><g stroke-linecap="square"><rect height="12" rx="3" width="30"/><circle cx="8" cy="4" r="2"/><circle cx="26" cy="4" r="2"/><path d="m4.66959966 6.27135946 2.13915047 3.42264075c.05854207.09366731.03006743.21705738-.06359987.27559945-.03178632.01986645-.06851585.03040034-.10599979.03040034h-4.27830094c-.11045695 0-.2-.08954305-.2-.2 0-.03748395.01053389-.07421347.03040034-.10599979l2.13915047-3.42264075c.05854206-.09366731.18193214-.12214194.27559945-.06359987.02575383.01609614.04750373.03784604.06359987.06359987z"/><path d="m22.6695997 6.27135946 2.1391504 3.42264075c.0585421.09366731.0300675.21705738-.0635998.27559945-.0317864.01986645-.0685159.03040034-.1059998.03040034h-4.278301c-.1104569 0-.2-.08954305-.2-.2 0-.03748395.0105339-.07421347.0304004-.10599979l2.1391504-3.42264075c.0585421-.09366731.1819322-.12214194.2755995-.06359987.0257538.01609614.0475037.03784604.0635999.06359987z"/></g><g stroke-linecap="round" transform="translate(13 4)"><path d="m.5 1.5h4"/><path d="m3.6798438 0 1 1.55267816-1 1.44732184"/></g></g></svg>