<svg height="14" viewBox="0 0 47 14" width="47" xmlns="http://www.w3.org/2000/svg"><g fill="none" fill-rule="evenodd" transform="translate(1 1)"><rect height="12" rx="3" stroke="#000" stroke-linecap="square" stroke-linejoin="round" width="45"/><g fill="#000" fill-rule="nonzero" transform="translate(12.88623 2.109863)"><path d="m2.98095703 6.97705078c.36165365 0 .65885417-.03759766.89160156-.11279297.41536459-.13964843.75553386-.40820312 1.02050782-.80566406.21126302-.3186849.36344401-.72688802.45654297-1.22460937.05371093-.29720053.0805664-.57291667.0805664-.82714844 0-.97753906-.19425456-1.73665365-.58276367-2.27734375-.38850912-.54069011-1.01424154-.81103516-1.87719727-.81103516h-1.89599609v6.05859375zm-2.98095703-6.97705078h3.19580078c1.08496094 0 1.92643229.38492839 2.52441406 1.15478516.53352865.69466145.80029297 1.58447265.80029297 2.66943359 0 .83789063-.15755208 1.59521484-.47265625 2.27197266-.55501302 1.19596354-1.50927734 1.79394531-2.86279297 1.79394531h-3.18505859z"/><path d="m9.05566406 0v4.87695312c0 .57291667.10742188 1.04915365.32226563 1.42871094.31868489.57291667.85579431.859375 1.61132811.859375.9059245 0 1.5218099-.30973307 1.8476563-.92919922.1754557-.33658854.2631836-.78955078.2631836-1.35888672v-4.87695312h1.0849609v4.43115234c0 .97037761-.1306966 1.71695964-.3920898 2.2397461-.4798178.95247396-1.3857422 1.42871094-2.7177735 1.42871094-1.33203124 0-2.23616535-.47623698-2.71240233-1.42871094-.26139323-.52278646-.39208985-1.26936849-.39208985-2.2397461v-4.43115234z"/><path d="m15.9414062 0h3.550293c.7018229 0 1.2675781.19783529 1.6972656.59350586s.6445313.95157878.6445313 1.66772461c0 .61588542-.191569 1.15209961-.574707 1.60864258-.3831381.45654297-.972168.68481445-1.7670899.68481445h-2.4814453v3.33544922h-1.0688477zm4.8125 2.26660156c0-.58007812-.2148437-.97395833-.6445312-1.18164062-.2363281-.11100261-.5603841-.16650391-.972168-.16650391h-2.1269531v2.73388672h2.1269531c.4798177 0 .869222-.10205078 1.1682129-.30615234.2989909-.20410157.4484863-.56396485.4484863-1.07958985z"/><path d="m23.2783203 0h5.7524414v.96679688h-4.7104492v2.39550781h4.355957v.91308593h-4.355957v2.67480469h4.7910156v.93994141h-5.8330078z"/></g><g stroke="#000" stroke-linecap="square" stroke-linejoin="round"><circle cx="8" cy="4" r="2"/><path d="m4.66959966 6.27135946 2.13915047 3.42264075c.05854207.09366731.03006743.21705738-.06359987.27559945-.03178632.01986645-.06851585.03040034-.10599979.03040034h-4.27830094c-.11045695 0-.2-.08954305-.2-.2 0-.03748395.01053389-.07421347.03040034-.10599979l2.13915047-3.42264075c.05854206-.09366731.18193214-.12214194.27559945-.06359987.02575383.01609614.04750373.03784604.06359987.06359987z"/></g></g></svg>