<svg height="14" viewBox="0 0 14 14" width="14" xmlns="http://www.w3.org/2000/svg" xmlns:xlink="http://www.w3.org/1999/xlink"><mask id="a" fill="#fff"><path d="m0 0h1.41666667v1.44158416h-1.41666667z" fill="#fff" fill-rule="evenodd"/></mask><mask id="b" fill="#fff"><path d="m0 13.9722772c3.86611111 0 7-3.1276831 7-6.98613859 0-3.85845544-3.13388889-6.98613861-7-6.98613861z" fill="#fff" fill-rule="evenodd"/></mask><mask id="c" fill="#fff"><path d="m0 0h1.41666667v1.41386139h-1.41666667z" fill="#fff" fill-rule="evenodd"/></mask><mask id="d" fill="#fff"><path d="m0 13.9722772c3.86611111 0 7-3.1276831 7-6.98613859 0-3.85845544-3.13388889-6.98613861-7-6.98613861z" fill="#fff" fill-rule="evenodd"/></mask><mask id="e" fill="#fff"><path d="m0 0h1.41666667v1.41386139h-1.41666667z" fill="#fff" fill-rule="evenodd"/></mask><mask id="f" fill="#fff"><path d="m0 13.9722772c3.86611111 0 7-3.1276831 7-6.98613859 0-3.85845544-3.13388889-6.98613861-7-6.98613861z" fill="#fff" fill-rule="evenodd"/></mask><mask id="g" fill="#fff"><path d="m0 0h1.41666667v1.41386139h-1.41666667z" fill="#fff" fill-rule="evenodd"/></mask><mask id="h" fill="#fff"><path d="m0 13.9722772c3.86611111 0 7-3.1276831 7-6.98613859 0-3.85845544-3.13388889-6.98613861-7-6.98613861z" fill="#fff" fill-rule="evenodd"/></mask><mask id="i" fill="#fff"><path d="m0 0h1.41666667v1.41386139h-1.41666667z" fill="#fff" fill-rule="evenodd"/></mask><mask id="j" fill="#fff"><path d="m0 13.9722772c3.86611111 0 7-3.1276831 7-6.98613859 0-3.85845544-3.13388889-6.98613861-7-6.98613861z" fill="#fff" fill-rule="evenodd"/></mask><mask id="k" fill="#fff"><path d="m0 0h1.41666667v1.44158416h-1.41666667z" fill="#fff" fill-rule="evenodd"/></mask><mask id="l" fill="#fff"><path d="m0 13.9722772c3.86611111 0 7-3.1276831 7-6.98613859 0-3.85845544-3.13388889-6.98613861-7-6.98613861z" fill="#fff" fill-rule="evenodd"/></mask><mask id="m" fill="#fff"><path d="m0 0h1.41666667v1.41386139h-1.41666667z" fill="#fff" fill-rule="evenodd"/></mask><mask id="n" fill="#fff"><path d="m0 13.9722772c3.86611111 0 7-3.1276831 7-6.98613859 0-3.85845544-3.13388889-6.98613861-7-6.98613861z" fill="#fff" fill-rule="evenodd"/></mask><mask id="o" fill="#fff"><path d="m0 0h1.41666667v1.41386139h-1.41666667z" fill="#fff" fill-rule="evenodd"/></mask><mask id="p" fill="#fff"><path d="m0 13.9722772c3.86611111 0 7-3.1276831 7-6.98613859 0-3.85845544-3.13388889-6.98613861-7-6.98613861z" fill="#fff" fill-rule="evenodd"/></mask><mask id="q" fill="#fff"><path d="m0 0h1.41666667v1.41386139h-1.41666667z" fill="#fff" fill-rule="evenodd"/></mask><mask id="r" fill="#fff"><path d="m0 13.9722772c3.86611111 0 7-3.1276831 7-6.98613859 0-3.85845544-3.13388889-6.98613861-7-6.98613861z" fill="#fff" fill-rule="evenodd"/></mask><mask id="s" fill="#fff"><path d="m0 0h1.41666667v1.44158416h-1.41666667z" fill="#fff" fill-rule="evenodd"/></mask><mask id="t" fill="#fff"><path d="m0 13.9722772c3.86611111 0 7-3.1276831 7-6.98613859 0-3.85845544-3.13388889-6.98613861-7-6.98613861z" fill="#fff" fill-rule="evenodd"/></mask><mask id="u" fill="#fff"><path d="m0 0h1.44444444v1.44158416h-1.44444444z" fill="#fff" fill-rule="evenodd"/></mask><mask id="v" fill="#fff"><path d="m0 13.9722772c3.86611111 0 7-3.1276831 7-6.98613859 0-3.85845544-3.13388889-6.98613861-7-6.98613861z" fill="#fff" fill-rule="evenodd"/></mask><mask id="w" fill="#fff"><path d="m0 0h1.44444444v1.41386139h-1.44444444z" fill="#fff" fill-rule="evenodd"/></mask><mask id="x" fill="#fff"><path d="m0 13.9722772c3.86611111 0 7-3.1276831 7-6.98613859 0-3.85845544-3.13388889-6.98613861-7-6.98613861z" fill="#fff" fill-rule="evenodd"/></mask><mask id="y" fill="#fff"><path d="m0 0h1.41666667v1.41386139h-1.41666667z" fill="#fff" fill-rule="evenodd"/></mask><mask id="z" fill="#fff"><path d="m0 13.9722772c3.86611111 0 7-3.1276831 7-6.98613859 0-3.85845544-3.13388889-6.98613861-7-6.98613861z" fill="#fff" fill-rule="evenodd"/></mask><mask id="A" fill="#fff"><path d="m0 0h1.41666667v1.44158416h-1.41666667z" fill="#fff" fill-rule="evenodd"/></mask><mask id="B" fill="#fff"><path d="m0 13.9722772c3.86611111 0 7-3.1276831 7-6.98613859 0-3.85845544-3.13388889-6.98613861-7-6.98613861z" fill="#fff" fill-rule="evenodd"/></mask><mask id="C" fill="#fff"><path d="m0 0h1.41666667v1.41386139h-1.41666667z" fill="#fff" fill-rule="evenodd"/></mask><mask id="D" fill="#fff"><path d="m0 13.9722772c3.86611111 0 7-3.1276831 7-6.98613859 0-3.85845544-3.13388889-6.98613861-7-6.98613861z" fill="#fff" fill-rule="evenodd"/></mask><mask id="E" fill="#fff"><path d="m0 0h1.41666667v1.41386139h-1.41666667z" fill="#fff" fill-rule="evenodd"/></mask><mask id="F" fill="#fff"><path d="m0 13.9722772c3.86611111 0 7-3.1276831 7-6.98613859 0-3.85845544-3.13388889-6.98613861-7-6.98613861z" fill="#fff" fill-rule="evenodd"/></mask><mask id="G" fill="#fff"><path d="m0 0h1.44444444v1.41386139h-1.44444444z" fill="#fff" fill-rule="evenodd"/></mask><mask id="H" fill="#fff"><path d="m0 13.9722772c3.86611111 0 7-3.1276831 7-6.98613859 0-3.85845544-3.13388889-6.98613861-7-6.98613861z" fill="#fff" fill-rule="evenodd"/></mask><mask id="I" fill="#fff"><path d="m0 0h1.44444444v1.44158416h-1.44444444z" fill="#fff" fill-rule="evenodd"/></mask><mask id="J" fill="#fff"><path d="m0 13.9722772c3.86611111 0 7-3.1276831 7-6.98613859 0-3.85845544-3.13388889-6.98613861-7-6.98613861z" fill="#fff" fill-rule="evenodd"/></mask><mask id="K" fill="#fff"><path d="m0 0h1.41666667v1.41386139h-1.41666667z" fill="#fff" fill-rule="evenodd"/></mask><mask id="L" fill="#fff"><path d="m0 13.9722772c3.86611111 0 7-3.1276831 7-6.98613859 0-3.85845544-3.13388889-6.98613861-7-6.98613861z" fill="#fff" fill-rule="evenodd"/></mask><mask id="M" fill="#fff"><path d="m0 0h1.41666667v1.41386139h-1.41666667z" fill="#fff" fill-rule="evenodd"/></mask><mask id="N" fill="#fff"><path d="m0 13.9722772c3.86611111 0 7-3.1276831 7-6.98613859 0-3.85845544-3.13388889-6.98613861-7-6.98613861z" fill="#fff" fill-rule="evenodd"/></mask><mask id="O" fill="#fff"><path d="m0 0h1.44444444v1.41386139h-1.44444444z" fill="#fff" fill-rule="evenodd"/></mask><mask id="P" fill="#fff"><path d="m0 13.9722772c3.86611111 0 7-3.1276831 7-6.98613859 0-3.85845544-3.13388889-6.98613861-7-6.98613861z" fill="#fff" fill-rule="evenodd"/></mask><mask id="Q" fill="#fff"><path d="m0 0h1.41666667v1.44158416h-1.41666667z" fill="#fff" fill-rule="evenodd"/></mask><mask id="R" fill="#fff"><path d="m0 13.9722772c3.86611111 0 7-3.1276831 7-6.98613859 0-3.85845544-3.13388889-6.98613861-7-6.98613861z" fill="#fff" fill-rule="evenodd"/></mask><mask id="S" fill="#fff"><path d="m0 0h1.41666667v1.41386139h-1.41666667z" fill="#fff" fill-rule="evenodd"/></mask><mask id="T" fill="#fff"><path d="m0 13.9722772c3.86611111 0 7-3.1276831 7-6.98613859 0-3.85845544-3.13388889-6.98613861-7-6.98613861z" fill="#fff" fill-rule="evenodd"/></mask><mask id="U" fill="#fff"><path d="m0 0h1.41666667v1.41386139h-1.41666667z" fill="#fff" fill-rule="evenodd"/></mask><mask id="V" fill="#fff"><path d="m0 13.9722772c3.86611111 0 7-3.1276831 7-6.98613859 0-3.85845544-3.13388889-6.98613861-7-6.98613861z" fill="#fff" fill-rule="evenodd"/></mask><mask id="W" fill="#fff"><path d="m0 0h1.41666667v1.41386139h-1.41666667z" fill="#fff" fill-rule="evenodd"/></mask><mask id="X" fill="#fff"><path d="m0 13.9722772c3.86611111 0 7-3.1276831 7-6.98613859 0-3.85845544-3.13388889-6.98613861-7-6.98613861z" fill="#fff" fill-rule="evenodd"/></mask><g fill="none" fill-rule="evenodd" transform="matrix(-1 0 0 1 14 0)"><path d="m7 13.9844752c-3.86611111 0-7-3.1276831-7-6.98613857 0-3.85845544 3.13388889-6.98613861 7-6.98613861z" fill="#000" fill-rule="nonzero"/><g mask="url(#a)" transform="translate(7 4.186139)"><path d="m0 4.19639604h1.39994444v1.39717228h-1.39994444z" fill="#000" fill-rule="nonzero" mask="url(#b)" transform="translate(0 -4.173941)"/></g><g mask="url(#c)" transform="translate(7 1.413861)"><path d="m0 1.40199604h1.39994444v1.39717228h-1.39994444z" fill="#000" fill-rule="nonzero" mask="url(#d)" transform="translate(0 -1.401663)"/></g><g mask="url(#e)" transform="translate(8.388889)"><path d="m2.74694444-.00005545h-1.29405555c-.02929722 0-.05295.023716-.05295.05295604v1.29149307c0 .02923921.02365444.05295604.05306111.05295604h1.29405556c.02929722 0 .05306111-.0236076.05306111-.05295604v-1.29149307c-.00010853-.0292392-.02376306-.05295604-.05316945-.05295604z" fill="#000" fill-rule="nonzero" mask="url(#f)" transform="translate(-1.388889 .012198)"/></g><g mask="url(#g)" transform="translate(8.388889 2.8)"><path d="m2.74694444 2.79916832h-1.29405555c-.02929722 0-.05306111.0236076-.05306111.05295604v1.29149307c0 .0292392.02365444.05295604.05306111.05295604h1.29405555c.02929723 0 .05306112-.02360761.05306112-.05295604v-1.29149307c0-.02934733-.02365445-.05295604-.05306112-.05295604z" fill="#000" fill-rule="nonzero" mask="url(#h)" transform="translate(-1.388889 -2.787802)"/></g><g mask="url(#i)" transform="translate(7 9.786139)"><path d="m0 9.7900198h1.39994444v1.3971723h-1.39994444z" fill="#000" fill-rule="nonzero" mask="url(#j)" transform="translate(0 -9.773941)"/></g><g mask="url(#k)" transform="translate(7 6.986139)"><path d="m0 6.99556436h1.39994444v1.39717227h-1.39994444z" fill="#000" fill-rule="nonzero" mask="url(#l)" transform="translate(0 -6.973941)"/></g><g mask="url(#m)" transform="translate(8.388889 5.6)"><path d="m2.74694444 5.59362376h-1.29405555c-.02929722 0-.05306111.02360761-.05306111.05295604v1.29149307c0 .02923921.02365444.05295604.05306111.05295604h1.29405555c.02929723 0 .05306112-.0236076.05306112-.05295604v-1.29149307c0-.02934732-.02365445-.05295604-.05306112-.05295604z" fill="#000" fill-rule="nonzero" mask="url(#n)" transform="translate(-1.388889 -5.587802)"/></g><g mask="url(#o)" transform="translate(8.388889 8.4)"><path d="m2.74694444 8.39279208h-1.29405555c-.02929722 0-.05306111.0236076-.05306111.05295604v1.29149307c0 .02923921.02365444.05295604.05306111.05295604h1.29405555c.02929723 0 .05306112-.02360761.05306112-.05295604v-1.29149307c0-.02934733-.02365445-.05295604-.05306112-.05295604z" fill="#000" fill-rule="nonzero" mask="url(#p)" transform="translate(-1.388889 -8.387802)"/></g><g mask="url(#q)" transform="translate(7 12.586139)"><path d="m0 12.5844752h1.39994444v1.3971723h-1.39994444z" fill="#000" fill-rule="nonzero" mask="url(#r)" transform="translate(0 -12.573941)"/></g><g mask="url(#s)" transform="translate(8.388889 11.172277)"><path d="m2.74694444 11.1872475h-1.29405555c-.02929722 0-.05306111.0236076-.05306111.0529561v1.291493c0 .0292392.02365444.0529561.05306111.0529561h1.29405555c.02929723 0 .05306112-.0236076.05306112-.0529561v-1.291493c0-.0293474-.02365445-.0529561-.05306112-.0529561z" fill="#000" fill-rule="nonzero" mask="url(#t)" transform="translate(-1.388889 -11.160079)"/></g><g mask="url(#u)" transform="translate(9.777778 4.186139)"><path d="m4.11194444 4.19639604h-1.22375c-.04871944 0-.088.03941901-.088.08782574v1.22132673c0 .04862298.03949723.08782575.088.08782575h1.22375c.04871945 0 .088-.03941901.088-.08782575v-1.22132673c0-.04851485-.03949722-.08782574-.088-.08782574z" fill="#000" fill-rule="nonzero" mask="url(#v)" transform="translate(-2.777778 -4.173941)"/></g><g mask="url(#w)" transform="translate(9.777778 1.413861)"><path d="m4.11194444 1.40199604h-1.22375c-.04871944 0-.088.03941901-.088.08782574v1.22132673c0 .04862298.03949723.08782575.088.08782575h1.22375c.04871945 0 .088-.03941901.088-.08782575v-1.22132673c0-.04862297-.03949722-.08782574-.088-.08782574z" fill="#000" fill-rule="nonzero" mask="url(#x)" transform="translate(-2.777778 -1.401663)"/></g><g mask="url(#y)" transform="translate(11.194444 2.8)"><path d="m5.4775 2.79916832h-1.15483333c-.06770834 0-.12261389.05479683-.12261389.12237109v1.15254653c0 .06757426.05490555.12237109.12261389.12237109h1.15483333c.06770833 0 .12261389-.05479683.12261389-.12237109v-1.15254653c0-.06768238-.05490556-.12237109-.12261389-.12237109z" fill="#000" fill-rule="nonzero" mask="url(#z)" transform="translate(-4.194444 -2.787802)"/></g><g mask="url(#A)" transform="translate(12.583333 4.186139)"><path d="m6.84444444 4.19639604h-1.08886111c-.08582777 0-.1556.06952317-.1556.15529188v1.08670495c0 .08565782.06966111.15529188.1556.15529188h1.08886111c.08582778 0 .1556-.06952317.1556-.15529188v-1.08670495c0-.08587683-.06966111-.15529188-.1556-.15529188z" fill="#000" fill-rule="nonzero" mask="url(#B)" transform="translate(-5.583333 -4.173941)"/></g><g mask="url(#C)" transform="translate(12.583333 1.413861)"><path d="m5.6 1.40199604h1.39994444v1.39717228h-1.39994444z" fill="#000" fill-rule="nonzero" mask="url(#D)" transform="translate(-5.583333 -1.401663)"/></g><g mask="url(#E)" transform="translate(11.194444)"><path d="m4.2-.00005545h1.39994444v1.39717228h-1.39994444z" fill="#000" fill-rule="nonzero" mask="url(#F)" transform="translate(-4.194444 .012198)"/></g><g mask="url(#G)" transform="translate(9.777778 9.786139)"><path d="m4.11194444 9.7900198h-1.22375c-.04871944 0-.088.03941901-.088.08782574v1.22132676c0 .0486229.03949723.0878257.088.0878257h1.22375c.04871945 0 .088-.039419.088-.0878257v-1.22132676c0-.04840673-.03949722-.08782574-.088-.08782574z" fill="#000" fill-rule="nonzero" mask="url(#H)" transform="translate(-2.777778 -9.773941)"/></g><g mask="url(#I)" transform="translate(9.777778 6.986139)"><path d="m4.11194444 6.99556436h-1.22375c-.04871944 0-.088.03941901-.088.08782574v1.22132673c0 .04862297.03949723.08782574.088.08782574h1.22375c.04871945 0 .088-.03941901.088-.08782574v-1.22132673c0-.04840673-.03949722-.08782574-.088-.08782574z" fill="#000" fill-rule="nonzero" mask="url(#J)" transform="translate(-2.777778 -6.973941)"/></g><g mask="url(#K)" transform="translate(11.194444 5.6)"><path d="m5.4775 5.59362376h-1.15483333c-.06770834 0-.12261389.05479683-.12261389.12237109v1.15254654c0 .06757425.05490555.12237109.12261389.12237109h1.15483333c.06770833 0 .12261389-.05479684.12261389-.12237109v-1.15254654c0-.06779049-.05490556-.12237109-.12261389-.12237109z" fill="#000" fill-rule="nonzero" mask="url(#L)" transform="translate(-4.194444 -5.587802)"/></g><g mask="url(#M)" transform="translate(11.194444 8.4)"><path d="m5.4775 8.39279208h-1.15483333c-.06770834 0-.12261389.05479683-.12261389.12237109v1.15254653c0 .06757426.05490555.12237109.12261389.12237109h1.15483333c.06770833 0 .12261389-.05479683.12261389-.12237109v-1.15254653c0-.06757426-.05490556-.12237109-.12261389-.12237109z" fill="#000" fill-rule="nonzero" mask="url(#N)" transform="translate(-4.194444 -8.387802)"/></g><g mask="url(#O)" transform="translate(9.777778 12.586139)"><path d="m4.11194444 12.5750495h-1.22375c-.04871944 0-.088.039419-.088.0878257v1.2213268c0 .048623.03949723.0878257.088.0878257h1.22375c.04871945 0 .088-.039419.088-.0878257v-1.2213268c0-.0482986-.03949722-.0878257-.088-.0878257z" fill="#000" fill-rule="nonzero" mask="url(#P)" transform="translate(-2.777778 -12.573941)"/></g><g mask="url(#Q)" transform="translate(11.194444 11.172277)"><path d="m5.4775 11.1778218h-1.15483333c-.06770834 0-.12261389.0547968-.12261389.1223711v1.1525465c0 .0675743.05490555.1223711.12261389.1223711h1.15483333c.06770833 0 .12261389-.0547968.12261389-.1223711v-1.1525465c0-.0675743-.05490556-.1223711-.12261389-.1223711z" fill="#000" fill-rule="nonzero" mask="url(#R)" transform="translate(-4.194444 -11.160079)"/></g><g mask="url(#S)" transform="translate(12.583333 1.413861)"><path d="m5.6 1.40199604h1.39994444v1.39717228h-1.39994444z" fill="#000" fill-rule="nonzero" mask="url(#T)" transform="translate(-5.583333 -1.401663)"/></g><g mask="url(#U)" transform="translate(12.583333 9.786139)"><path d="m6.84444444 9.78059406h-1.08886111c-.08582777 0-.1556.06952317-.1556.15529188v1.08670496c0 .0856578.06966111.1552919.1556.1552919h1.08886111c.08582778 0 .1556-.0695232.1556-.1552919v-1.08670496c0-.08576871-.06966111-.15529188-.1556-.15529188z" fill="#000" fill-rule="nonzero" mask="url(#V)" transform="translate(-5.583333 -9.773941)"/></g><g mask="url(#W)" transform="translate(12.583333 6.986139)"><path d="m6.84444444 6.98613861h-1.08886111c-.08582777 0-.1556.06952317-.1556.15529189v1.08670495c0 .08565782.06966111.15529188.1556.15529188h1.08886111c.08582778 0 .1556-.06952317.1556-.15529188v-1.08670495c0-.08576872-.06966111-.15529189-.1556-.15529189z" fill="#000" fill-rule="nonzero" mask="url(#X)" transform="translate(-5.583333 -6.973941)"/></g></g></svg>