<svg height="11" viewBox="0 0 10 11" width="10" xmlns="http://www.w3.org/2000/svg"><g fill="none" fill-rule="evenodd" stroke="#000"><path d="m1.5 2.5v7.5c0 .2761424.22385763.5.5.5h6c.27614237 0 .5-.2238576.5-.5v-7.5z"/><path d="m3.5 2.5h3v-1.5c0-.27614237-.22385763-.5-.5-.5h-2c-.27614237 0-.5.22385763-.5.5z"/><path d="m.5 2.5h9v1h-9z"/><g stroke-linecap="round" stroke-linejoin="round"><path d="m3.41397496 4.74653374.02443408 3.49986597" transform="matrix(.99997563 .00698126 -.00698126 .99997563 .045437 -.023761)"/><path d="m6.61397496 4.74653374.02443408 3.49986597" transform="matrix(.99997563 .00698126 -.00698126 .99997563 .045515 -.046101)"/><path d="m4.98778296 4.74653374.02443408 3.49986597" transform="matrix(.99997563 .00698126 -.00698126 .99997563 .045475 -.034748)"/></g></g></svg>