<svg height="11" viewBox="0 0 13 11" width="13" xmlns="http://www.w3.org/2000/svg"><g fill="none" fill-rule="evenodd" stroke="#000" stroke-linecap="square" stroke-linejoin="round" transform="translate(1 1)"><path d="m5.5 9.16666667c2.5313051 0 5.5-3.07829276 5.5-4.58333334s-2.9686949-4.58333333-5.5-4.58333333-5.5 3.06404559-5.5 4.58333333c0 1.51928775 2.9686949 4.58333334 5.5 4.58333334z"/><path d="m5.5 5c1.81818182 0 3.48484848-.27777778 5-.83333333-1.79920903-2.77777778-3.46587569-4.16666667-5-4.16666667-1.5341243 0-3.20079097 1.38888889-5 4.16666667 1.51515152.55555555 3.18181818.83333333 5 .83333333z" fill="#000"/><circle cx="5.5" cy="4.5" r="2.5"/><path d="m6.36695623 6.74143801c.81451493 0 1.25015286-.91483479 1.44118777-1.37071901 0-.81451492-.51881935-1.370719-1.33333427-1.370719s-1.47480973.66029481-1.47480973 1.47480973.55244131 1.26662828 1.36695623 1.26662828z" fill="#000"/></g></svg>